<svg width="50" height="50" viewBox="0 0 50 50" fill="none" xmlns="http://www.w3.org/2000/svg">
<path d="M37.5 41.6667L36.7929 42.3738L37.5 43.0809L38.2071 42.3738L37.5 41.6667ZM27.0833 9.41667C26.5311 9.41667 26.0833 9.86439 26.0833 10.4167C26.0833 10.969 26.5311 11.4167 27.0833 11.4167L27.0833 9.41667ZM28.4596 34.0404L36.7929 42.3738L38.2071 40.9596L29.8738 32.6262L28.4596 34.0404ZM38.2071 42.3738L46.5405 34.0404L45.1262 32.6262L36.7929 40.9596L38.2071 42.3738ZM38.5 41.6667L38.5 14.4167L36.5 14.4167L36.5 41.6667L38.5 41.6667ZM33.5 9.41667L27.0833 9.41667L27.0833 11.4167L33.5 11.4167L33.5 9.41667ZM38.5 14.4167C38.5 11.6553 36.2614 9.41667 33.5 9.41667L33.5 11.4167C35.1569 11.4167 36.5 12.7598 36.5 14.4167L38.5 14.4167Z" fill="white"/>
<path d="M12.5 8.33333L13.2071 7.62622L12.5 6.91911L11.7929 7.62622L12.5 8.33333ZM22.9167 40.5833C23.4689 40.5833 23.9167 40.1356 23.9167 39.5833C23.9167 39.031 23.4689 38.5833 22.9167 38.5833L22.9167 40.5833ZM21.5404 15.9596L13.2071 7.62622L11.7929 9.04043L20.1262 17.3738L21.5404 15.9596ZM11.7929 7.62622L3.45955 15.9596L4.87376 17.3738L13.2071 9.04043L11.7929 7.62622ZM11.5 8.33333L11.5 35.5833L13.5 35.5833L13.5 8.33333L11.5 8.33333ZM16.5 40.5833L22.9167 40.5833L22.9167 38.5833L16.5 38.5833L16.5 40.5833ZM11.5 35.5833C11.5 38.3447 13.7386 40.5833 16.5 40.5833L16.5 38.5833C14.8431 38.5833 13.5 37.2402 13.5 35.5833L11.5 35.5833Z" fill="white"/>
</svg>
