<svg width="50" height="50" viewBox="0 0 50 50" fill="none" xmlns="http://www.w3.org/2000/svg">
<path d="M24.8604 4.00061C28.2823 3.97075 31.6209 5.03874 34.3878 7.04353C34.5012 7.12574 34.558 7.16685 34.5673 7.22911C34.5766 7.29137 34.5339 7.34805 34.4485 7.46142L25.2353 19.6878C25.1272 19.8312 25.0731 19.903 24.9992 19.9036C24.9252 19.9042 24.8699 19.8335 24.7593 19.6919L15.3341 7.62823C15.2467 7.51637 15.203 7.46043 15.2113 7.39802C15.2195 7.33561 15.2755 7.29352 15.3876 7.20933C18.119 5.15657 21.4385 4.03047 24.8604 4.00061Z" stroke="white" stroke-width="2" stroke-linecap="round"/>
<path d="M24.8866 7.00049C27.6481 6.9764 30.3428 7.83229 32.5819 9.43996C32.6955 9.5215 32.7523 9.56228 32.7618 9.62471C32.7713 9.68713 32.7286 9.74387 32.6431 9.85733L25.2353 19.6878C25.1272 19.8312 25.0731 19.903 24.9992 19.9036C24.9252 19.9042 24.8699 19.8335 24.7593 19.6919L17.1811 9.99226C17.0936 9.88031 17.0499 9.82433 17.0583 9.76174C17.0667 9.69916 17.1228 9.6574 17.2349 9.57388C19.4456 7.92739 22.125 7.02459 24.8866 7.00049Z" stroke="white" stroke-width="2" stroke-linecap="round"/>
<mask id="mask0_8_231" style="mask-type:alpha" maskUnits="userSpaceOnUse" x="15" y="4" width="20" height="16">
<path d="M34.4485 7.46142C34.5339 7.34805 34.5766 7.29137 34.5673 7.22911C34.558 7.16685 34.5012 7.12574 34.3878 7.04353C31.6209 5.03874 28.2823 3.97075 24.8604 4.00061C21.4385 4.03047 18.119 5.15657 15.3876 7.20933C15.2755 7.29352 15.2195 7.33561 15.2113 7.39802C15.203 7.46043 15.2467 7.51637 15.3341 7.62823L24.7593 19.6919C24.8699 19.8335 24.9252 19.9042 24.9992 19.9036C25.0731 19.903 25.1272 19.8312 25.2353 19.6878L34.4485 7.46142Z" fill="#33363F"/>
</mask>
<g mask="url(#mask0_8_231)">
<path fill-rule="evenodd" clip-rule="evenodd" d="M12 10C12 10.5523 11.5523 11 11 11C10.4477 11 10 10.5523 10 10C10 9.44772 10.4477 9 11 9C11.5523 9 12 9.44772 12 10ZM18 13C18 14.1046 17.1046 15 16 15C14.8954 15 14 14.1046 14 13C14 11.8954 14.8954 11 16 11C17.1046 11 18 11.8954 18 13ZM9 17C10.1046 17 11 16.1046 11 15C11 13.8954 10.1046 13 9 13C7.89543 13 7 13.8954 7 15C7 16.1046 7.89543 17 9 17Z" fill="white"/>
</g>
</svg>
