<svg width="50" height="50" viewBox="0 0 50 50" fill="none" xmlns="http://www.w3.org/2000/svg">
<path d="M6.25 10.25C6.25 8.84987 6.25 8.1498 6.52248 7.61502C6.76217 7.14462 7.14462 6.76217 7.61502 6.52248C8.1498 6.25 8.84987 6.25 10.25 6.25H39.75C41.1501 6.25 41.8502 6.25 42.385 6.52248C42.8554 6.76217 43.2378 7.14462 43.4775 7.61502C43.75 8.1498 43.75 8.84987 43.75 10.25V39.75C43.75 41.1501 43.75 41.8502 43.4775 42.385C43.2378 42.8554 42.8554 43.2378 42.385 43.4775C41.8502 43.75 41.1501 43.75 39.75 43.75H10.25C8.84987 43.75 8.1498 43.75 7.61502 43.4775C7.14462 43.2378 6.76217 42.8554 6.52248 42.385C6.25 41.8502 6.25 41.1501 6.25 39.75V10.25Z" stroke="white" stroke-width="2"/>
<circle cx="16.6667" cy="25" r="5.25" stroke="white" stroke-width="2"/>
<path d="M20.8333 25H29.1667M35.4167 29.1667V25.15C35.4167 25.0672 35.3495 25 35.2667 25H29.1667M29.1667 25V29.1667" stroke="white" stroke-width="2" stroke-linecap="round"/>
</svg>
