<svg width="50" height="50" viewBox="0 0 50 50" fill="none" xmlns="http://www.w3.org/2000/svg">
<path fill-rule="evenodd" clip-rule="evenodd" d="M32.6087 28.4039C33.0744 27.3646 33.3333 26.2125 33.3333 25C33.3333 20.3976 29.6024 16.6667 25 16.6667C23.7874 16.6667 22.6354 16.9256 21.5961 17.3913L23.1469 18.9421C23.733 18.763 24.3553 18.6667 25 18.6667C28.4978 18.6667 31.3333 21.5022 31.3333 25C31.3333 25.6447 31.237 26.267 31.0579 26.8531L32.6087 28.4039ZM20.5028 20.5406C19.3678 21.6852 18.6667 23.2607 18.6667 25C18.6667 28.4978 21.5022 31.3333 25 31.3333C26.7393 31.3333 28.3148 30.6322 29.4594 29.4972L30.8736 30.9114C29.3671 32.4084 27.2916 33.3333 25 33.3333C20.3976 33.3333 16.6667 29.6024 16.6667 25C16.6667 22.7084 17.5916 20.6329 19.0886 19.1264L20.5028 20.5406Z" fill="black"/>
<path fill-rule="evenodd" clip-rule="evenodd" d="M37.4694 33.2647C40.4235 30.8299 42.6419 28.1495 43.7572 26.688C43.7812 26.6566 43.8062 26.6243 43.8319 26.5911C44.1312 26.2044 44.5296 25.6897 44.5296 25C44.5296 24.3103 44.1312 23.7956 43.8319 23.4089L43.8316 23.4085C43.806 23.3754 43.7811 23.3432 43.7572 23.312C42.5727 21.7598 40.144 18.8329 36.9112 16.2854C33.6921 13.7486 29.5638 11.5 25 11.5C22.3531 11.5 19.8527 12.2563 17.5912 13.3866L19.0907 14.8861C20.9605 14.0324 22.9498 13.5 25 13.5C28.9162 13.5 32.6106 15.4427 35.6733 17.8562C38.7224 20.259 41.0349 23.0414 42.1674 24.5253C42.2642 24.6523 42.3382 24.7493 42.3998 24.8346C42.4545 24.9103 42.4888 24.9624 42.5111 25C42.4888 25.0376 42.4545 25.0897 42.3998 25.1654C42.3382 25.2507 42.2642 25.3477 42.1674 25.4747C41.0817 26.8972 38.9119 29.5128 36.0482 31.8435L37.4694 33.2647ZM16.3588 16.3968C15.6556 16.8527 14.9769 17.3438 14.3267 17.8562C11.2776 20.259 8.96513 23.0414 7.83264 24.5253C7.73578 24.6523 7.66181 24.7493 7.60022 24.8346C7.54552 24.9103 7.5112 24.9624 7.48891 25C7.5112 25.0376 7.54552 25.0897 7.60022 25.1654C7.66181 25.2507 7.73578 25.3477 7.83264 25.4747C8.96513 26.9586 11.2776 29.741 14.3267 32.1438C17.3894 34.5573 21.0838 36.5 25 36.5C28.0666 36.5 30.9972 35.3088 33.595 33.633L35.0392 35.0772C32.1537 37.0047 28.7217 38.5 25 38.5C20.4362 38.5 16.3079 36.2514 13.0888 33.7146C9.856 31.1671 7.42731 28.2402 6.24275 26.688C6.21883 26.6567 6.19387 26.6244 6.16818 26.5912L6.16807 26.5911C5.86875 26.2044 5.4704 25.6897 5.4704 25C5.4704 24.3103 5.86875 23.7956 6.16807 23.4089C6.1938 23.3757 6.2188 23.3434 6.24275 23.312C7.42731 21.7598 9.856 18.8329 13.0888 16.2854C13.669 15.8281 14.2787 15.3803 14.9152 14.9533L16.3588 16.3968Z" fill="black"/>
<path d="M10.4167 4.16667L43.75 37.5" stroke="black" stroke-width="2"/>
</svg>
