<svg width="50" height="50" viewBox="0 0 50 50" fill="none" xmlns="http://www.w3.org/2000/svg">
<path d="M25 43.75C29.3379 43.75 33.5416 42.2459 36.8949 39.4939C40.2481 36.742 42.5434 32.9125 43.3897 28.6579C44.236 24.4034 43.5809 19.987 41.536 16.1613C39.4911 12.3356 36.183 9.33731 32.1753 7.67726C28.1676 6.01721 23.7083 5.79814 19.5572 7.05737C15.406 8.3166 11.82 10.9762 9.40995 14.5831C6.99993 18.1899 5.9151 22.5208 6.34029 26.8378C6.76547 31.1548 8.67438 35.1909 11.7417 38.2582" stroke="white" stroke-width="2" stroke-linecap="round"/>
<path d="M33.3333 20.8333L24.3187 31.6509C23.6631 32.4376 23.3354 32.8309 22.8948 32.8509C22.4542 32.8709 22.0922 32.5088 21.3681 31.7847L16.6667 27.0833" stroke="white" stroke-width="2" stroke-linecap="round"/>
</svg>
