<svg wclass="muscle" idth="1028" height="1024" viewBox="0 0 1028 1024" fill="none" xmlns="http://www.w3.org/2000/svg">
<path class="muscle" d="M499.099 193.362C494.862 195.949 494.588 196.63 495.545 201.26C496.092 203.983 496.639 206.434 496.639 206.434C496.776 206.57 500.467 206.979 504.841 207.387L512.77 208.204L512.36 199.762C511.949 191.455 511.813 191.319 507.848 190.911C505.524 190.774 501.834 191.728 499.099 193.362Z" fill="#1D4877"/>
<path class="muscle" d="M516.187 192.136C515.914 193.226 515.23 197.038 514.957 200.579L514.273 207.251L518.648 206.57C520.972 206.298 524.526 206.434 526.577 207.115C529.584 207.932 530.678 207.66 531.771 205.617C533.822 201.668 533.412 196.766 530.678 194.315C527.26 191.183 517.007 189.685 516.187 192.136Z" fill="#1D4877"/>
<path class="muscle" d="M490.214 202.621C487.616 206.843 488.027 221.957 490.761 221.957C491.991 221.957 494.588 205.889 493.768 203.166C493.085 201.396 491.307 200.987 490.214 202.621Z" fill="#1D4877"/>
<path class="muscle" d="M535.189 202.757C533.822 204.936 535.736 222.638 537.239 221.14C539.563 218.689 540.247 206.434 538.196 203.711C536.829 201.804 536.009 201.532 535.189 202.757Z" fill="#1D4877"/>
<path class="muscle" d="M497.596 211.064C496.092 212.562 494.862 215.013 494.862 216.511C494.862 219.37 498.143 220.187 499.783 217.736C500.33 216.783 502.927 216.511 506.618 217.055C513.453 217.872 514 217.055 509.215 211.881C505.251 207.66 501.287 207.387 497.596 211.064Z" fill="#1D4877"/>
<path class="muscle" d="M519.741 211.472C515.777 215.557 515.914 217.055 520.152 215.966C522.202 215.421 525.21 215.966 527.67 217.192C529.857 218.281 531.908 219.234 532.455 219.234C533.959 219.234 533.138 215.013 530.951 211.745C528.217 207.523 523.569 207.387 519.741 211.472Z" fill="#1D4877"/>
<path class="muscle" d="M518.921 221.004C516.324 222.911 516.461 223.183 521.929 225.906C525.073 227.404 528.217 228.766 528.901 228.766C530.951 228.766 533.548 223.183 532.181 221.957C529.857 219.643 521.519 219.098 518.921 221.004Z" fill="#1D4877"/>
<path class="muscle" d="M497.322 222.094C490.761 225.77 498.826 228.63 506.618 225.362C510.719 223.728 511.539 222.911 509.899 221.957C507.165 220.187 500.33 220.323 497.322 222.094Z" fill="#1D4877"/>
<path class="muscle" d="M501.97 230.264C499.236 231.217 499.1 231.762 500.603 234.213C502.654 237.481 506.208 237.209 506.892 233.668C507.575 230.264 505.661 228.902 501.97 230.264Z" fill="#1D4877"/>
<path class="muscle" d="M522.202 232.715C522.202 237.481 523.979 239.115 526.303 236.255C528.49 233.668 527.534 229.583 524.526 229.038C522.749 228.63 522.202 229.447 522.202 232.715Z" fill="#1D4877"/>
<path class="muscle" d="M492.811 232.851C491.718 234.621 496.365 242.383 498.553 242.383C500.74 242.383 500.877 235.302 498.689 233.123C496.639 231.081 493.905 230.945 492.811 232.851Z" fill="#1D4877"/>
<path class="muscle" d="M529.037 235.438C526.44 241.838 527.944 243.608 532.318 239.115C536.146 234.894 536.282 232.443 532.865 231.762C531.635 231.489 530.131 232.987 529.037 235.438Z" fill="#1D4877"/>
<path class="muscle" d="M488.027 239.66C488.027 243.2 492.538 252.187 495.682 254.775C497.869 256.545 498.006 256.409 497.186 253.004C495.545 246.604 490.897 236.936 489.394 236.936C488.71 236.936 488.027 238.162 488.027 239.66Z" fill="#1D4877"/>
<path class="muscle" d="M535.872 238.843C535.872 239.932 534.642 243.745 533.138 247.285C529.037 256.681 530.678 257.906 535.599 249.192C540.383 241.021 541.067 236.936 537.923 236.936C536.829 236.936 535.872 237.753 535.872 238.843Z" fill="#1D4877"/>
<path class="muscle" d="M505.524 240.613C504.157 240.885 503.064 241.702 503.064 242.383C503.064 244.017 524.936 243.336 525.346 241.702C525.62 240.34 509.762 239.387 505.524 240.613Z" fill="#1D4877"/>
<path class="muscle" d="M501.697 247.694C501.697 249.6 505.388 250.553 512.36 250.553C520.152 250.553 525.21 249.328 524.116 247.694C523.159 246.06 501.697 246.06 501.697 247.694Z" fill="#1D4877"/>
<path class="muscle" d="M522.065 254.366C519.331 256.817 517.964 259.132 518.374 260.766C518.785 263.217 519.468 262.945 523.979 258.451C531.908 250.825 530.131 247.149 522.065 254.366Z" fill="#1D4877"/>
<path class="muscle" d="M498.963 253.685C498.963 256.136 506.618 262.808 509.352 262.808C512.086 262.808 511.676 260.766 508.259 256.817C504.431 252.732 498.963 250.825 498.963 253.685Z" fill="#1D4877"/>
<path class="muscle" d="M493.495 262.4C493.495 270.979 504.978 297.668 510.582 302.298C515.64 306.519 510.446 288.408 501.56 270.434C496.776 260.902 493.495 257.634 493.495 262.4Z" fill="#1D4877"/>
<path class="muscle" d="M529.721 266.485C528.354 269.345 525.893 273.43 524.116 275.745C520.288 280.783 517.281 288.817 516.187 296.443C515.23 302.843 516.734 304.749 519.878 301.208C523.979 296.715 533.548 274.383 534.232 267.847C535.052 260.085 533.002 259.404 529.721 266.485Z" fill="#1D4877"/>
<path class="muscle" d="M506.208 267.983C504.978 268.664 505.661 270.843 508.805 275.472C511.129 279.013 513.453 281.872 514 281.872C515.777 281.872 522.476 269.753 521.519 268.255C520.562 266.621 508.669 266.485 506.208 267.983Z" fill="#1D4877"/>
<path class="muscle" d="M479.551 285.957C466.701 292.494 465.471 294.128 473.126 294.128C479.824 294.128 489.12 289.225 492.674 283.915C494.725 280.647 494.725 280.511 492.538 280.511C491.171 280.647 485.293 283.098 479.551 285.957Z" fill="#1D4877"/>
<path class="muscle" d="M534.642 283.779C535.462 285.549 538.47 288.272 541.477 289.906C546.945 293.038 560.479 295.353 560.479 293.311C560.342 291.949 537.376 280.375 534.915 280.511C533.548 280.511 533.548 281.328 534.642 283.779Z" fill="#1D4877"/>
<path class="muscle" d="M494.315 287.591C492.948 292.902 493.358 294.128 496.912 294.128C500.603 294.128 501.287 291.677 498.963 287.183C497.049 283.779 495.408 283.915 494.315 287.591Z" fill="#1D4877"/>
<path class="muscle" d="M529.037 287.864C526.85 291.949 528.08 295.489 531.635 295.489C535.462 295.489 536.009 293.855 534.095 288.817C532.181 283.779 531.361 283.643 529.037 287.864Z" fill="#1D4877"/>
<path class="muscle" d="M483.379 301.617C480.371 302.57 476.954 304.613 475.587 305.974C471.896 309.787 455.355 332.8 455.902 333.481C456.312 333.753 460.96 330.213 466.428 325.583C471.896 320.953 481.328 314.689 487.343 311.694C500.877 304.885 501.834 304.068 498.416 301.481C495.135 299.166 490.351 299.166 483.379 301.617Z" fill="#FBB021"/>
<path class="muscle" d="M441.821 303.796C438.54 305.43 434.986 308.153 433.756 309.923C430.885 314.281 428.288 323.677 427.194 333.072L426.374 341.106L429.381 337.702C430.885 335.796 434.166 330.621 436.353 326.264C438.677 321.77 443.735 314.689 447.836 310.468C451.937 306.247 455.218 302.298 455.218 301.889C455.218 299.847 447.426 301.072 441.821 303.796Z" fill="#1D4877"/>
<path class="muscle" d="M459.046 304.34C452.211 308.97 441.821 321.906 437.857 330.621C434.029 339.336 433.893 340.426 437.447 340.426C444.965 340.426 457.815 328.306 464.651 314.826C471.622 301.072 469.435 297.26 459.046 304.34Z" fill="#1D4877"/>
<path class="muscle" d="M529.994 301.753C528.217 303.66 531.224 306.791 539.837 311.694C544.758 314.689 553.78 320.681 559.659 325.311C565.673 329.804 570.868 333.345 571.142 332.936C572.098 332.119 559.659 314.008 554.737 309.106C552.277 306.655 548.312 303.796 545.852 302.843C541.34 300.936 531.498 300.255 529.994 301.753Z" fill="#FBB021"/>
<path class="muscle" d="M559.112 303.251C559.112 304.613 560.889 309.515 563.213 314.145C569.228 326.945 581.804 339.472 591.647 342.468C597.798 344.238 594.928 335.796 583.035 317.277C578.934 310.877 575.106 306.791 571.005 304.477C563.896 300.255 559.112 299.847 559.112 303.251Z" fill="#1D4877"/>
<path class="muscle" d="M574.149 303.387C574.149 304.204 575.379 305.566 576.746 306.247C580.574 308.426 588.366 319.592 594.928 332.392C600.806 343.83 600.806 343.83 601.216 338.792C602.31 326.809 596.978 311.013 590.28 305.974C586.315 302.979 574.149 301.072 574.149 303.387Z" fill="#1D4877"/>
<path class="muscle" d="M501.423 309.106C494.178 311.149 453.578 337.43 454.261 339.608C454.945 341.515 471.486 351.047 479.551 354.043C483.652 355.677 490.214 356.902 494.178 356.902C506.345 357.038 510.036 352.953 510.993 338.111C512.36 317.549 508.805 306.928 501.423 309.106Z" fill="#F68838"/>
<path class="muscle" d="M521.245 310.74C516.597 316.323 514.957 343.966 518.785 351.319C521.792 357.038 529.174 359.081 539.563 356.902C548.586 355.132 564.58 347.779 570.731 342.74C575.653 338.519 575.789 338.791 559.795 327.489C541.204 314.281 524.253 306.928 521.245 310.74Z" fill="#F68838"/>
<path class="muscle" d="M439.361 343.83C437.037 344.919 434.576 346.553 433.619 347.506C431.295 350.366 426.511 368.749 425.69 378.553C424.187 394.485 430.748 402.792 438.54 394.485C442.778 389.992 449.34 375.285 452.484 363.03C455.902 349.277 455.902 346.553 452.211 343.966C448.52 341.379 445.102 341.379 439.361 343.83Z" fill="#1D4877"/>
<path class="muscle" d="M575.789 343.421C573.055 346.145 573.876 359.898 577.293 370.791C582.488 386.86 592.33 398.979 598.482 396.936C605.317 394.894 605.18 380.868 598.072 358.536C594.928 348.323 594.381 347.643 588.503 344.783C581.531 341.379 578.113 341.106 575.789 343.421Z" fill="#1D4877"/>
<path class="muscle" d="M427.331 352.953C421.453 361.94 417.898 395.438 422.136 402.792C425.007 407.694 425.417 405.651 423.64 395.575C421.453 383.047 422.683 370.111 427.057 359.626C430.748 350.502 430.885 347.506 427.331 352.953Z" fill="#1D4877"/>
<path class="muscle" d="M599.302 353.77C604.77 364.255 607.231 388.085 604.223 400.885C603.13 405.787 603.266 406.06 605.317 404.017C611.605 397.617 606.411 355.404 598.755 350.638C597.798 350.094 598.072 351.319 599.302 353.77Z" fill="#1D4877"/>
<path class="muscle" d="M460.686 353.226C460.686 355.404 465.744 357.038 466.974 355.268C468.068 353.362 466.291 351.319 463.284 351.319C461.916 351.319 460.686 352.136 460.686 353.226Z" fill="#1D4877"/>
<path class="muscle" d="M563.076 353.498C561.572 355.404 561.709 355.54 564.58 355.132C566.357 354.996 567.997 353.906 568.407 352.953C569.091 350.638 565.263 350.911 563.076 353.498Z" fill="#1D4877"/>
<path class="muscle" d="M475.587 359.489C478.457 362.077 481.192 363.03 481.192 361.668C481.192 360.034 476.68 356.766 474.63 356.766C472.716 356.902 472.989 357.447 475.587 359.489Z" fill="#1D4877"/>
<path class="muscle" d="M550.089 359.625C547.492 362.621 547.492 362.621 550.636 360.987C552.277 360.17 553.644 358.808 553.644 358.128C553.644 356.085 552.96 356.494 550.089 359.625Z" fill="#1D4877"/>
<path class="muscle" d="M466.838 362.485C468.341 367.387 474.356 377.191 475.86 377.191C480.371 377.191 477.637 366.706 471.896 362.213C467.385 358.672 465.744 358.808 466.838 362.485Z" fill="#1D4877"/>
<path class="muscle" d="M555.284 363.166C550.5 367.932 549.269 373.651 553.37 372.834C555.968 372.426 561.026 363.166 560.205 360.579C559.795 359.489 558.018 360.443 555.284 363.166Z" fill="#1D4877"/>
<path class="muscle" d="M458.909 362.757C457.815 365.345 460.96 370.928 463.83 371.472C467.111 372.153 466.838 367.523 463.42 363.847C460.139 360.306 459.866 360.306 458.909 362.757Z" fill="#1D4877"/>
<path class="muscle" d="M564.033 363.847C561.436 367.523 561.162 370.383 563.623 370.383C566.357 370.383 568.681 367.387 568.681 363.983C568.681 360.034 566.767 360.034 564.033 363.847Z" fill="#1D4877"/>
<path class="muscle" d="M493.905 366.434C489.257 369.294 484.609 377.6 485.839 380.732C487.07 383.728 492.128 382.911 501.013 378.145C506.891 375.013 509.352 372.834 509.626 370.655C510.719 363.574 502.107 361.26 493.905 366.434Z" fill="#EE3E32"/>
<path class="muscle" d="M519.468 365.617C515.777 369.974 524.799 377.736 538.06 381.821C546.125 384.272 543.528 372.562 534.642 366.706C529.311 363.166 521.929 362.621 519.468 365.617Z" fill="#EE3E32"/>
<path class="muscle" d="M464.24 375.557C462.463 378.553 472.989 392.851 476.27 391.762C478.184 391.081 477.501 385.498 475.04 381.685C472.716 378.281 465.334 373.923 464.24 375.557Z" fill="#1D4877"/>
<path class="muscle" d="M557.335 379.37C553.644 383.047 551.456 387.677 552.823 389.038C554.327 390.536 557.745 388.085 560.479 383.728C565.4 375.694 563.486 373.243 557.335 379.37Z" fill="#1D4877"/>
<path class="muscle" d="M459.319 382.502C459.319 388.902 466.018 405.515 469.982 408.647C478.594 415.319 476.954 402.519 467.521 388.357C460.686 378.145 459.319 377.191 459.319 382.502Z" fill="#1D4877"/>
<path class="muscle" d="M560.752 390.4C553.78 401.974 551.866 408.511 555.421 408.511C558.018 408.511 560.889 404.97 564.99 396.936C568.681 389.583 571.141 378.553 569.091 378.553C568.407 378.553 564.58 383.864 560.752 390.4Z" fill="#1D4877"/>
<path class="muscle" d="M496.776 384C492.264 385.77 486.386 394.213 486.249 399.251L485.976 403.745L494.725 403.336C506.071 402.928 509.899 400.613 509.899 394.077C509.899 390.808 508.805 388.221 506.481 386.043C502.927 382.366 501.423 382.094 496.776 384Z" fill="#EE3E32"/>
<path class="muscle" d="M523.022 384.272C519.331 386.315 517.691 392.034 519.605 396.528C523.432 405.923 541.34 407.694 541.34 398.843C541.34 391.217 528.764 381.14 523.022 384.272Z" fill="#EE3E32"/>
<path class="muscle" d="M586.179 395.711C590.417 404.153 597.252 411.234 601.079 411.234C602.31 411.234 599.712 407.421 594.518 401.294C581.804 386.723 581.668 386.723 586.179 395.711Z" fill="#1D4877"/>
<path class="muscle" d="M435.26 399.387C425.417 409.328 424.187 411.234 427.741 410.281C432.115 409.191 440.181 401.702 442.915 396.119C444.419 393.26 445.239 390.809 444.692 390.809C444.009 390.809 439.907 394.757 435.26 399.387Z" fill="#1D4877"/>
<path class="muscle" d="M409.56 410.145C405.869 417.906 401.631 430.026 398.623 441.464C393.839 460.528 391.378 466.928 384.816 477.957L381.262 484.085L385.363 479.455C389.601 474.689 410.243 442.281 415.574 431.932C420.222 423.081 421.179 397.617 416.941 397.617C416.258 397.617 412.84 403.336 409.56 410.145Z" fill="#1D4877"/>
<path class="muscle" d="M609.691 410.281C609.691 421.991 610.102 424.579 613.519 432.068C617.757 441.191 641.543 479.591 644.687 482.179C647.831 484.766 646.874 481.634 642.363 474.417C636.212 465.021 634.845 461.209 628.83 438.332C622.541 414.502 619.124 406.06 613.656 400.885L609.691 397.072V410.281Z" fill="#1D4877"/>
<path class="muscle" d="M492.538 408.511C488.3 410.145 485.019 415.864 485.566 420.221C486.113 424.987 491.991 428.528 501.013 429.889C509.079 430.979 511.266 428.664 511.266 419.813C511.266 409.6 502.79 404.426 492.538 408.511Z" fill="#EE3E32"/>
<path class="muscle" d="M523.159 408.647C521.655 409.464 519.741 412.187 518.648 414.774C514.82 423.898 522.476 431.387 533.822 429.617C540.52 428.664 542.707 426.894 542.707 422.536C542.707 411.915 531.361 403.881 523.159 408.647Z" fill="#EE3E32"/>
<path class="muscle" d="M429.655 418.315C420.769 426.894 417.488 431.251 418.855 432.613C419.129 433.021 421.589 431.796 424.05 429.889C426.511 428.119 430.475 425.532 432.936 424.306C438.951 421.311 442.915 416.817 442.915 413.004C442.915 407.83 439.087 409.328 429.655 418.315Z" fill="#1D4877"/>
<path class="muscle" d="M585.085 414.366C585.085 416.136 586.452 418.86 588.229 420.357C590.963 422.945 607.094 431.66 609.008 431.66C610.648 431.66 605.59 423.898 601.216 419.949C591.373 410.826 585.085 408.647 585.085 414.366Z" fill="#1D4877"/>
<path class="muscle" d="M467.111 414.911C466.701 415.591 465.744 421.447 464.787 428.119C462.737 442.417 463.83 453.583 467.795 459.847C470.939 465.157 480.371 471.83 482.422 470.468C485.156 468.834 483.105 434.519 479.688 423.898C477.637 417.498 469.162 411.506 467.111 414.911Z" fill="#1D4877"/>
<path class="muscle" d="M553.37 416.272C549.816 420.085 548.176 425.668 546.125 440.511C543.528 457.804 543.528 464.477 545.988 467.881C547.902 470.468 548.039 470.468 552.96 467.881C561.846 463.115 563.896 457.94 564.306 438.468C564.717 420.221 563.486 414.911 558.292 414.23C556.788 413.957 554.601 414.911 553.37 416.272Z" fill="#1D4877"/>
<path class="muscle" d="M436.08 425.94C436.08 426.621 429.381 439.149 421.043 453.991C402.861 486.672 403.818 484.766 407.372 480.681C412.43 474.825 427.331 451.813 431.705 443.234C435.67 435.336 438.677 424.851 436.9 424.851C436.49 424.851 436.08 425.396 436.08 425.94Z" fill="#1D4877"/>
<path class="muscle" d="M592.33 432.477C596.842 444.868 609.281 466.111 621.038 481.089C628.146 490.213 626.506 485.447 618.167 473.055C613.793 466.383 606.547 454.128 602.31 445.957C593.424 429.072 589.049 423.081 592.33 432.477Z" fill="#1D4877"/>
<path class="muscle" d="M418.035 439.421C408.603 449.498 387.961 482.315 390.011 484.221C390.421 484.63 395.206 478.366 400.537 470.196C406.005 462.162 412.157 453.311 414.071 450.723C423.093 439.013 428.014 431.66 426.784 431.66C426.101 431.66 422.136 435.2 418.035 439.421Z" fill="#1D4877"/>
<path class="muscle" d="M524.116 436.153C519.331 440.511 519.058 441.191 517.691 453.855C514.547 483.813 523.569 504.374 531.771 485.855C535.326 477.685 540.11 454.536 540.384 444.187C540.657 436.97 540.247 435.2 538.06 433.566C533.822 430.57 529.311 431.387 524.116 436.153Z" fill="#EE3E32"/>
<path class="muscle" d="M601.489 432.749C601.489 433.43 607.504 441.736 614.886 451.54C622.131 461.209 629.923 471.966 631.974 475.506C639.082 487.626 637.169 482.179 628.556 465.566C618.851 446.911 601.489 425.804 601.489 432.749Z" fill="#1D4877"/>
<path class="muscle" d="M489.394 435.064C485.566 439.694 491.171 476.187 497.186 486.536C501.15 493.072 503.884 494.162 507.438 490.485C510.446 487.625 510.582 486.264 510.582 470.06C510.582 448.953 509.626 443.779 504.157 437.787C501.013 434.111 498.963 433.021 495.545 433.021C493.085 433.021 490.351 433.974 489.394 435.064Z" fill="#EE3E32"/>
<path class="muscle" d="M417.762 450.315C411.2 460.664 395.753 488.851 396.846 488.851C398.077 488.851 412.43 465.566 418.855 453.038C422.273 446.502 424.734 441.191 424.323 441.191C424.05 441.191 421.043 445.277 417.762 450.315Z" fill="#1D4877"/>
<path class="muscle" d="M604.223 442.962C604.223 444.732 629.377 487.489 630.334 487.489C632.384 487.489 629.377 480.817 621.858 468.425C613.246 454.264 604.223 441.191 604.223 442.962Z" fill="#1D4877"/>
<path class="muscle" d="M458.772 468.017C457.542 473.872 456.038 501.923 457.132 500.97C458.089 500.153 462.053 474.009 462.053 468.017C462.053 465.974 461.506 464.34 460.823 464.34C460.139 464.34 459.319 465.974 458.772 468.017Z" fill="#1D4877"/>
<path class="muscle" d="M567.587 474.689C568.271 479.591 569.638 487.625 570.731 492.664L572.645 501.787L572.098 492.8C571.415 481.089 568.681 465.702 567.451 465.702C566.904 465.702 566.904 469.651 567.587 474.689Z" fill="#1D4877"/>
<path class="muscle" d="M464.924 470.468C458.636 485.855 456.585 547.813 461.233 574.638C464.24 591.251 468.615 607.864 471.759 614.672C473.263 617.668 474.356 620.8 474.356 621.481C474.356 622.298 475.86 625.974 477.637 629.787C480.235 635.37 481.055 636.187 481.875 634.145C482.422 632.783 482.285 628.425 481.328 624.613C480.508 620.664 478.321 607.864 476.407 596.017C474.356 584.17 471.622 571.098 470.255 566.74L467.521 558.979L468.068 573.277C468.478 584.306 468.341 586.349 467.385 582.128C464.924 571.642 464.377 520.987 466.564 496.613C467.658 484.085 468.205 472.102 467.521 470.06L466.564 466.383L464.924 470.468ZM469.845 593.974C469.435 594.928 469.162 594.247 469.162 592.34C469.162 590.434 469.435 589.753 469.845 590.57C470.119 591.523 470.119 593.157 469.845 593.974ZM471.212 603.506C470.802 604.596 470.392 604.187 470.392 602.689C470.255 601.191 470.665 600.374 471.076 600.919C471.486 601.328 471.622 602.553 471.212 603.506ZM472.579 611.677C472.169 612.766 471.759 612.357 471.759 610.86C471.622 609.362 472.032 608.545 472.443 609.089C472.853 609.498 472.989 610.723 472.579 611.677Z" fill="#1D4877"/>
<path class="muscle" d="M561.436 467.881C559.795 469.515 560.342 489.94 562.666 513.226C564.716 532.426 564.716 538.689 563.349 557.481C561.299 584.851 559.112 596.562 559.932 576L560.479 561.702L555.011 582.536C548.859 606.23 544.621 630.468 545.988 633.872C547.492 637.821 550.636 633.872 552.413 625.566C553.37 621.481 554.464 618.213 555.011 618.213C555.557 618.213 557.608 613.447 559.522 607.591C571.552 571.506 574.422 519.489 566.494 481.362C564.033 469.651 562.939 466.519 561.436 467.881ZM558.702 596.017C558.291 597.379 558.018 596.562 558.018 594.383C558.018 592.068 558.291 591.115 558.702 591.932C558.975 592.885 558.975 594.791 558.702 596.017Z" fill="#1D4877"/>
<path class="muscle" d="M471.622 479.183C471.622 492.528 477.227 509.821 492.128 541.957C496.776 552.034 502.107 564.017 503.884 568.511C507.848 578.587 507.985 576.817 504.431 561.838C501.013 547.404 475.45 478.638 472.306 475.37C471.896 475.098 471.622 476.732 471.622 479.183Z" fill="#1D4877"/>
<path class="muscle" d="M475.723 477.821C475.723 478.502 476.954 480.409 478.457 482.179C481.465 485.991 482.285 482.996 479.278 478.911C477.364 476.46 475.723 475.915 475.723 477.821Z" fill="#1D4877"/>
<path class="muscle" d="M553.917 479.728C552.96 481.906 552.277 483.949 552.277 484.357C552.277 484.902 547.355 497.566 541.477 512.545C529.721 542.23 521.382 566.74 520.152 575.319C519.605 578.996 521.245 576 525.346 565.787C528.627 557.481 534.642 544 538.606 535.83C552.277 507.234 557.061 492.119 556.104 481.362L555.557 475.915L553.917 479.728Z" fill="#1D4877"/>
<path class="muscle" d="M549.543 480C548.586 481.225 548.039 482.451 548.449 482.723C548.859 483.132 549.953 482.587 550.91 481.362C551.866 480.136 552.413 478.911 552.003 478.638C551.593 478.23 550.499 478.774 549.543 480Z" fill="#1D4877"/>
<path class="muscle" d="M483.515 487.081C482.012 488.579 482.422 494.979 484.199 496.749C486.386 498.928 489.394 496.34 489.394 492.391C489.394 488.034 485.703 484.766 483.515 487.081Z" fill="#1D4877"/>
<path class="muscle" d="M644.414 488.17C643.32 490.894 645.918 493.889 652.206 497.157C657.674 499.881 665.739 500.698 665.739 498.383C665.739 495.115 652.206 486.128 647.285 486.128C646.054 486.128 644.824 487.081 644.414 488.17Z" fill="#1D4877"/>
<path class="muscle" d="M369.506 491.574C364.721 493.753 360.894 496.204 360.894 497.021C360.894 501.379 381.262 495.932 383.176 491.03C385.09 486.264 380.305 486.4 369.506 491.574Z" fill="#1D4877"/>
<path class="muscle" d="M540.93 488.306C539.563 489.668 539.7 497.021 541.204 497.021C543.254 497.021 545.715 493.209 545.168 490.757C544.758 488.17 542.434 486.945 540.93 488.306Z" fill="#1D4877"/>
<path class="muscle" d="M384.406 492.391C383.586 493.753 378.802 497.702 373.744 501.106C362.124 508.868 360.483 511.319 364.721 514.723C369.232 518.4 381.126 520.851 385.91 518.945L389.601 517.447L388.781 505.6C387.687 491.847 386.594 488.443 384.406 492.391Z" fill="#1D4877"/>
<path class="muscle" d="M640.039 504.102C639.219 511.591 638.809 518.4 639.219 519.081C640.586 521.26 655.623 519.353 660.545 516.494C666.696 512.953 666.286 509.549 658.904 504.374C655.487 501.923 650.292 497.838 647.285 495.115L641.68 490.349L640.039 504.102Z" fill="#1D4877"/>
<path class="muscle" d="M633.888 492.528C632.111 494.162 632.931 501.243 635.391 505.6L637.715 509.957L638.126 503.966C638.809 494.57 636.895 489.396 633.888 492.528Z" fill="#1D4877"/>
<path class="muscle" d="M390.421 495.115C389.328 497.974 389.328 507.234 390.558 508.323C392.335 510.094 394.932 504.374 395.069 498.655C395.069 492.8 392.198 490.485 390.421 495.115Z" fill="#1D4877"/>
<path class="muscle" d="M493.085 494.025C492.811 494.57 491.718 497.974 490.761 501.515C489.12 507.506 489.257 508.596 492.128 514.86C493.905 518.536 495.955 521.396 496.776 521.123C499.236 520.306 504.568 509.549 504.704 505.328C504.841 503.013 504.021 500.153 503.064 499.064C500.603 496.204 493.768 492.664 493.085 494.025Z" fill="#1D4877"/>
<path class="muscle" d="M527.67 496.749C522.749 501.651 522.612 503.966 526.44 514.042C531.088 526.57 536.556 523.438 538.06 507.234C538.743 500.289 536.829 494.298 533.548 493.208C532.591 492.936 529.994 494.57 527.67 496.749Z" fill="#1D4877"/>
<path class="muscle" d="M354.742 500.017C351.051 502.06 345.856 506.825 345.856 508.187C345.856 508.732 347.634 509.277 349.821 509.277C354.469 509.277 361.167 503.557 360.073 500.562C359.116 497.974 358.433 497.974 354.742 500.017Z" fill="#1D4877"/>
<path class="muscle" d="M667.927 500.425C666.696 503.83 668.337 506.145 674.078 508.596C683.374 512.817 685.288 506.553 676.402 501.106C671.071 497.838 669.02 497.702 667.927 500.425Z" fill="#1D4877"/>
<path class="muscle" d="M469.162 510.502C466.154 528.204 467.111 542.094 472.853 569.328C475.86 583.081 479.278 601.055 480.508 609.225C482.832 625.294 485.703 633.736 488.3 632.919C489.53 632.511 490.351 626.655 490.897 612.63C491.307 601.872 492.538 586.894 493.495 579.268C495.682 561.566 494.315 552.851 485.839 534.604C482.422 526.979 478.047 516.902 476.133 512C474.356 507.098 472.306 502.604 471.759 502.06C471.212 501.515 469.982 505.328 469.162 510.502Z" fill="#1D4877"/>
<path class="muscle" d="M555.147 504.238C554.327 506.417 553.644 508.596 553.644 509.277C553.644 509.957 549.953 518.536 545.441 528.204C533.548 553.94 532.728 557.753 535.189 577.906C536.282 586.894 537.239 603.098 537.239 613.855C537.239 633.191 537.239 633.328 540.247 632.919C542.981 632.511 543.528 630.74 546.945 611.404C548.996 599.83 552.55 581.447 555.011 570.553C557.335 559.66 559.795 545.906 560.479 539.915C561.572 528.613 560.069 506.689 557.881 502.74C556.788 500.698 556.378 500.97 555.147 504.238Z" fill="#1D4877"/>
<path class="muscle" d="M504.021 514.723C498.279 525.889 497.596 532.97 501.423 543.864C504.021 551.625 506.481 553.123 507.712 548.085C509.352 541.685 511.129 512.272 510.036 508.46C509.215 505.055 508.805 505.464 504.021 514.723Z" fill="#1D4877"/>
<path class="muscle" d="M516.734 507.234C516.734 513.498 519.741 540.323 520.972 545.362C522.339 550.128 522.612 550.4 524.116 548.494C525.073 547.132 526.577 541.821 527.534 536.511C529.311 527.115 529.174 526.843 525.21 518.4C523.022 513.77 520.152 508.732 518.921 507.234L516.871 504.511L516.734 507.234Z" fill="#1D4877"/>
<path class="muscle" d="M354.605 521.94C349.547 530.519 348.18 533.787 349.957 533.787C351.598 533.787 359.116 523.711 360.347 519.898C362.261 513.906 358.57 515.132 354.605 521.94Z" fill="#1D4877"/>
<path class="muscle" d="M667.106 519.081C667.106 521.804 676.812 535.149 678.179 534.332C679.956 533.243 671.481 517.447 669.157 517.447C668.063 517.447 667.106 518.264 667.106 519.081Z" fill="#1D4877"/>
<path class="muscle" d="M367.319 521.26C364.721 524.119 359.527 536.511 359.527 539.915C359.527 544.953 363.218 541.14 366.772 532.562C371.283 521.804 371.42 516.63 367.319 521.26Z" fill="#1D4877"/>
<path class="muscle" d="M656.717 520.579C655.897 522.757 665.329 541.957 667.38 541.957C669.43 541.957 668.473 536.783 665.329 529.43C661.502 520.987 658.084 517.311 656.717 520.579Z" fill="#1D4877"/>
<path class="muscle" d="M373.88 528.885C369.779 538.008 369.506 541.004 372.923 540.323C376.204 539.779 381.262 524.936 378.938 522.621C377.708 521.396 376.614 522.757 373.88 528.885Z" fill="#1D4877"/>
<path class="muscle" d="M384.953 527.115C383.586 530.655 382.766 534.604 383.176 535.966C383.996 539.779 388.507 529.021 387.961 524.391C387.551 521.26 387.277 521.532 384.953 527.115Z" fill="#1D4877"/>
<path class="muscle" d="M648.788 522.621C648.105 523.847 651.932 537.328 653.846 540.323C655.35 542.502 657.537 541.14 657.537 538.008C657.537 534.74 651.932 521.532 650.565 521.532C650.019 521.532 649.198 522.077 648.788 522.621Z" fill="#1D4877"/>
<path class="muscle" d="M639.766 524.119C639.766 527.251 643.183 537.872 644.14 537.872C645.371 537.872 645.371 531.745 644.004 527.115C643.047 523.711 639.766 521.396 639.766 524.119Z" fill="#1D4877"/>
<path class="muscle" d="M526.577 570.553C522.886 580.357 520.288 598.06 520.152 614.264C520.152 629.379 520.425 631.966 522.749 634.417C525.893 637.957 529.721 638.094 531.088 634.826C533.002 630.196 533.412 607.319 531.908 589.617C530.131 569.736 528.764 564.834 526.577 570.553Z" fill="#1D4877"/>
<path class="muscle" d="M497.459 572.732C495.272 578.723 494.178 626.247 496.092 632.238C498.416 639.047 503.337 639.319 506.618 632.783C510.856 624.885 507.848 588.528 501.833 572.868C500.056 568.238 499.236 568.238 497.459 572.732Z" fill="#1D4877"/>
<path class="muscle" d="M471.759 642.315C471.622 654.434 472.032 657.702 473.536 657.702C474.493 657.702 476.954 658.928 479.004 660.562C481.602 662.604 482.559 662.877 482.559 661.379C482.559 659.336 476.954 640.681 473.946 632.511C471.896 627.064 471.759 627.2 471.759 642.315Z" fill="#1D4877"/>
<path class="muscle" d="M551.73 642.723C548.996 650.894 546.809 658.928 546.809 660.698V663.557L549.953 660.834C551.593 659.336 554.054 657.702 555.421 657.294C557.471 656.477 557.745 654.57 557.745 642.042C557.745 634.145 557.471 627.745 557.198 627.745C556.788 627.745 554.327 634.417 551.73 642.723Z" fill="#1D4877"/>
<path class="muscle" d="M506.755 637.957C506.345 639.455 505.661 642.86 505.114 645.447C504.704 648.034 502.517 655.66 500.33 662.468C495.545 677.447 494.315 684.664 495.955 689.021C497.049 692.017 497.322 691.608 498.826 684.936C499.783 680.851 502.244 672.817 504.431 667.234C508.805 655.523 510.309 645.174 508.805 639.319C507.712 635.779 507.438 635.643 506.755 637.957Z" fill="#1D4877"/>
<path class="muscle" d="M518.921 646.264C519.878 657.021 530.951 691.881 532.318 688.34C534.232 683.302 532.865 675.813 526.85 657.974C523.296 647.762 520.015 638.774 519.331 638.094C518.648 637.277 518.511 640.953 518.921 646.264Z" fill="#1D4877"/>
<path class="muscle" d="M483.242 641.906C481.055 643.54 480.781 644.357 482.285 647.353C485.293 654.026 494.862 653.208 494.862 646.264C494.862 640.408 488.573 637.957 483.242 641.906Z" fill="#1D4877"/>
<path class="muscle" d="M534.505 642.043C532.045 644.902 533.412 648.443 537.649 650.894C541.34 652.8 541.614 652.8 544.211 649.668C547.355 645.855 547.492 644.902 544.621 642.179C542.024 639.455 536.693 639.319 534.505 642.043Z" fill="#1D4877"/>
<path class="muscle" d="M490.487 655.932C488.847 656.34 488.027 657.838 488.027 660.289C488.027 664.238 491.307 669.821 492.401 667.779C493.905 665.464 495.135 654.979 493.905 655.115C493.358 655.251 491.718 655.523 490.487 655.932Z" fill="#1D4877"/>
<path class="muscle" d="M534.095 660.698C535.599 668.732 536.829 669.549 538.47 663.83C539.563 659.745 539.563 658.247 538.196 657.43C534.642 655.115 533.138 656.204 534.095 660.698Z" fill="#1D4877"/>
<path class="muscle" d="M473.399 668.051C471.896 672 476.68 698.553 484.472 730.281C488.573 746.894 493.358 766.911 495.272 774.808C499.236 791.421 501.834 798.502 502.654 794.962C502.927 793.736 501.423 785.974 499.236 777.94C493.905 758.468 493.768 757.787 492.128 727.83C490.624 700.46 489.257 689.702 485.839 679.217C482.285 668.323 475.587 662.332 473.399 668.051Z" fill="#1D4877"/>
<path class="muscle" d="M546.945 670.23C540.794 676.63 538.06 691.881 535.872 729.872C534.232 758.332 533.138 766.366 528.627 783.251C526.85 789.923 525.893 795.234 526.44 795.234C528.49 795.234 536.556 765.957 544.211 730.553C547.219 716.255 550.499 701.277 551.593 697.191C554.327 685.617 555.284 674.996 553.78 670.911C552.003 666.417 550.499 666.281 546.945 670.23Z" fill="#1D4877"/>
<path class="muscle" d="M501.013 691.745C499.51 710.4 501.97 726.06 505.798 722.247C508.942 719.115 506.481 682.349 503.064 680.17C502.517 679.762 501.56 684.936 501.013 691.745Z" fill="#1D4877"/>
<path class="muscle" d="M524.526 681.94C522.612 684.8 520.835 708.494 521.929 714.757C523.159 722.111 525.62 723.472 526.85 717.481C528.901 707.404 526.85 677.991 524.526 681.94Z" fill="#1D4877"/>
<path class="muscle" d="M469.982 700.187C469.298 707.677 471.349 720.204 476.544 738.723C479.278 748.392 482.695 761.872 484.062 768.681C487.343 783.932 491.854 798.502 491.991 794.009C492.401 784.749 477.774 710.264 473.81 700.732C471.349 694.74 470.529 694.604 469.982 700.187Z" fill="#1D4877"/>
<path class="muscle" d="M553.917 700.868C549.953 713.94 535.736 788.698 536.009 794.826C536.009 797.14 540.657 780.8 551.456 740.085C558.428 713.94 560.479 695.83 556.514 695.83C555.831 695.83 554.737 698.145 553.917 700.868Z" fill="#1D4877"/>
<path class="muscle" d="M499.51 724.97C498.279 729.872 499.783 765.685 501.56 772.085C502.38 775.489 502.79 769.498 502.927 750.979C503.064 726.06 501.697 716.255 499.51 724.97Z" fill="#1D4877"/>
<path class="muscle" d="M525.756 727.285C524.389 734.23 524.936 777.396 526.44 773.447C527.807 769.634 529.994 734.502 529.311 727.421C528.764 721.838 526.85 721.838 525.756 727.285Z" fill="#1D4877"/>
<path class="muscle" d="M499.099 804.357C496.092 815.115 498.279 827.779 501.697 819.064C503.474 814.57 503.474 801.089 501.834 800C501.013 799.592 499.783 801.498 499.099 804.357Z" fill="#1D4877"/>
<path class="muscle" d="M525.483 809.123C526.577 818.111 528.217 822.468 530.678 822.468C532.455 822.468 531.224 807.353 529.037 803.404C526.03 797.821 524.526 800.409 525.483 809.123Z" fill="#1D4877"/>
<path class="muscle" d="M492.128 810.485C489.667 822.06 489.53 822.468 490.897 822.468C492.811 822.468 494.452 818.111 495.545 810.485C496.092 806.128 495.955 803.404 495.135 803.404C494.315 803.404 493.085 806.672 492.128 810.485Z" fill="#1D4877"/>
<path class="muscle" d="M506.755 804.357C505.251 805.719 505.661 820.834 507.165 821.787C507.985 822.332 508.532 819.064 508.532 813.072C508.532 803.404 508.395 802.587 506.755 804.357Z" fill="#1D4877"/>
<path class="muscle" d="M519.605 811.847C519.468 816.885 520.152 821.379 520.835 821.787C523.159 823.149 523.022 811.166 520.835 805.583C520.015 803.54 519.605 805.447 519.605 811.847Z" fill="#1D4877"/>
<path class="muscle" d="M533.138 809.804C533.138 816.204 536.009 822.74 537.923 820.834C539.153 819.745 536.009 805.038 534.369 804.085C533.685 803.54 533.138 806.128 533.138 809.804Z" fill="#1D4877"/>
<path class="muscle" d="M484.609 813.209C481.875 817.43 480.508 820.698 481.328 820.97C482.148 821.243 483.652 820.562 484.609 819.609C486.386 817.566 491.171 806.128 490.077 806.128C489.804 806.128 487.343 809.396 484.609 813.209Z" fill="#1D4877"/>
<path class="muscle" d="M538.743 808.851C538.606 811.302 543.664 822.468 544.758 822.468C546.535 822.468 545.168 817.294 542.024 812.255C540.247 809.26 538.743 807.762 538.743 808.851Z" fill="#1D4877"/>
<path class="muscle" d="M476.407 826.553C475.997 827.234 476.134 827.915 476.954 827.915C477.637 827.915 478.731 827.234 479.141 826.553C479.551 825.736 479.414 825.191 478.594 825.191C477.911 825.191 476.817 825.736 476.407 826.553Z" fill="#1D4877"/>
<path class="muscle" d="M544.074 827.779C544.074 829.413 544.758 830.638 545.441 830.638C546.262 830.638 546.809 829.821 546.809 828.732C546.809 827.643 546.262 826.281 545.441 825.872C544.758 825.464 544.074 826.281 544.074 827.779Z" fill="#1D4877"/>
<path class="muscle" d="M548.176 826.553C548.176 827.234 549.132 827.915 550.363 827.915C551.456 827.915 552.003 827.234 551.593 826.553C551.183 825.736 550.226 825.191 549.406 825.191C548.722 825.191 548.176 825.736 548.176 826.553Z" fill="#1D4877"/>
<path class="muscle" d="M480.645 828.596C480.235 829.821 480.645 830.638 481.738 830.638C482.832 830.638 483.926 829.685 484.472 828.596C484.882 827.37 484.472 826.553 483.379 826.553C482.285 826.553 481.192 827.506 480.645 828.596Z" fill="#1D4877"/>
<path class="muscle" d="M486.66 829.413C486.66 830.911 487.343 831.728 488.027 831.319C488.847 830.911 489.394 829.549 489.394 828.46C489.394 827.37 488.847 826.553 488.027 826.553C487.343 826.553 486.66 827.779 486.66 829.413Z" fill="#1D4877"/>
<path class="muscle" d="M501.97 830.23C502.517 835.132 506.481 835.54 506.481 830.638C506.481 828.46 505.661 827.098 504.021 826.826C501.97 826.417 501.56 827.098 501.97 830.23Z" fill="#1D4877"/>
<path class="muscle" d="M521.792 827.506C520.288 828.868 520.698 833.089 522.339 834.179C524.663 835.54 526.713 832.545 525.62 829.413C524.799 826.553 523.432 825.872 521.792 827.506Z" fill="#1D4877"/>
<path class="muscle" d="M532.045 829.685C532.318 831.728 533.138 833.225 533.822 833.089C535.462 832.681 534.915 829.14 532.865 827.234C532.045 826.281 531.771 827.098 532.045 829.685Z" fill="#1D4877"/>
<path class="muscle" d="M493.085 828.868C492.538 829.277 492.128 830.502 492.128 831.591C492.128 833.906 495.682 833.906 496.639 831.455C497.732 828.596 495.135 826.689 493.085 828.868Z" fill="#1D4877"/>
<path class="muscle" d="M538.606 829.957C539.563 831.183 540.657 831.728 540.93 831.455C541.887 830.502 539.973 827.915 538.333 827.915C537.513 827.915 537.513 828.732 538.606 829.957Z" fill="#1D4877"/>
</svg>
