<?xml version="1.0" standalone="no"?>
<!DOCTYPE svg PUBLIC "-//W3C//DTD SVG 20010904//EN"
 "http://www.w3.org/TR/2001/REC-SVG-20010904/DTD/svg10.dtd">
<svg version="1.0" xmlns="http://www.w3.org/2000/svg"
 width="379.000000pt" height="716.000000pt" viewBox="0 0 379.000000 716.000000"
 preserveAspectRatio="xMidYMid meet">

<g transform="translate(0.000000,716.000000) scale(0.100000,-0.100000)"
fill="#000000" stroke="none">
<path d="M1708 6991 c-26 -16 -52 -39 -58 -50 -14 -26 -12 -26 41 3 24 13 63
29 87 36 25 6 42 17 42 25 0 26 -62 18 -112 -14z"/>
<path d="M1872 7008 c3 -7 32 -22 65 -34 34 -11 73 -28 87 -37 41 -27 43 -20
5 19 -18 20 -48 43 -66 50 -41 18 -96 19 -91 2z"/>
<path d="M1717 6830 c-26 -16 -65 -39 -87 -50 -31 -16 -40 -26 -40 -46 0 -33
21 -39 91 -26 114 21 151 56 133 128 -8 33 -39 31 -97 -6z"/>
<path d="M1887 6853 c-4 -3 -7 -26 -7 -49 0 -52 21 -70 108 -90 97 -23 128
-16 117 29 -4 16 -18 30 -38 38 -18 7 -54 28 -82 46 -47 31 -84 41 -98 26z"/>
<path d="M1666 6544 c-9 -113 -7 -180 6 -209 6 -14 14 -25 18 -25 12 0 60 111
60 141 0 29 -33 106 -64 150 -12 17 -14 11 -20 -57z"/>
<path d="M1992 6570 c-57 -97 -59 -118 -24 -195 18 -36 36 -64 41 -61 22 14
30 75 23 191 l-7 120 -33 -55z"/>
<path d="M1596 6598 c-13 -42 -14 -67 -4 -105 6 -24 14 -43 19 -43 15 0 27 41
31 101 3 50 1 54 -20 57 -12 2 -24 -3 -26 -10z"/>
<path d="M2054 6595 c-8 -19 4 -115 16 -135 22 -36 48 48 36 114 -5 27 -12 36
-27 36 -11 0 -22 -7 -25 -15z"/>
<path d="M1783 6438 c2 -87 -19 -157 -65 -212 -37 -46 -182 -167 -270 -228
l-63 -43 72 -7 c39 -4 98 -17 130 -29 176 -64 186 -63 191 12 1 24 14 105 28
180 19 106 24 162 22 254 -3 108 -5 119 -25 132 l-22 15 2 -74z"/>
<path d="M1888 6499 c-27 -15 -25 -251 2 -384 11 -54 23 -129 27 -167 8 -90
20 -93 150 -44 61 24 123 40 170 44 l74 7 -88 62 c-247 174 -324 281 -310 429
6 66 4 71 -25 53z"/>
<path d="M1213 5913 c-35 -8 -63 -18 -63 -22 0 -5 24 -11 54 -14 57 -6 140
-43 167 -73 9 -11 51 -86 94 -169 103 -198 133 -244 220 -333 105 -107 109
-105 113 83 4 177 -13 370 -34 402 -30 47 -165 96 -345 128 -101 18 -125 18
-206 -2z"/>
<path d="M2225 5906 c-125 -27 -212 -56 -261 -87 -52 -32 -58 -68 -58 -344 -1
-286 -2 -284 100 -178 84 86 154 193 237 359 43 86 77 141 101 162 37 32 118
62 168 62 40 0 34 15 -12 29 -78 23 -159 22 -275 -3z"/>
<path d="M1076 5836 c-90 -34 -155 -138 -163 -266 -5 -74 11 -185 26 -178 16
7 172 179 216 238 26 36 70 88 97 116 l49 51 -44 21 c-61 29 -133 36 -181 18z"/>
<path d="M2497 5839 c-40 -9 -97 -36 -97 -45 0 -3 13 -16 29 -30 16 -13 67
-75 114 -137 47 -61 115 -141 151 -176 l65 -65 12 30 c7 16 13 70 13 119 0
111 -27 187 -88 250 -56 59 -113 74 -199 54z"/>
<path d="M1253 5678 c-33 -35 -91 -124 -111 -171 -21 -50 -16 -65 26 -72 20
-3 64 -12 97 -20 95 -22 192 -36 208 -29 13 5 12 13 -8 57 -12 29 -35 84 -50
124 -37 100 -64 137 -100 141 -23 2 -37 -5 -62 -30z"/>
<path d="M2346 5694 c-23 -23 -35 -46 -87 -179 -28 -71 -43 -124 -38 -129 5
-6 61 1 146 17 76 15 150 28 165 30 15 2 30 6 34 9 21 22 -97 232 -145 258
-28 15 -57 12 -75 -6z"/>
<path d="M1053 5438 c-88 -131 -99 -183 -77 -392 15 -149 15 -265 -1 -326 -6
-22 -3 -21 28 13 73 79 127 220 127 328 0 30 -7 97 -16 149 -18 109 -23 222
-11 263 12 44 -5 32 -50 -35z"/>
<path d="M2598 5419 c2 -50 -3 -124 -12 -181 -20 -125 -20 -240 0 -309 22 -76
69 -160 111 -200 33 -32 35 -32 27 -9 -9 25 -10 172 -3 425 l4 141 -37 74
c-21 41 -51 90 -66 109 l-29 34 5 -84z"/>
<path d="M1140 5353 c0 -30 91 -308 190 -578 34 -93 77 -215 97 -269 50 -145
84 -205 142 -254 28 -24 87 -88 131 -142 45 -55 87 -100 95 -100 23 0 27 84
15 385 -14 400 -31 621 -52 674 -12 34 -165 188 -214 217 -22 13 -63 31 -90
39 -65 20 -247 55 -285 55 -25 0 -29 -4 -29 -27z"/>
<path d="M2365 5354 c-156 -32 -224 -65 -314 -150 -93 -87 -119 -131 -130
-225 -19 -144 -33 -448 -35 -704 -1 -303 0 -305 79 -203 27 35 92 108 145 163
108 113 90 77 246 510 135 378 208 601 201 619 -9 22 -47 20 -192 -10z"/>
<path d="M2740 5347 c0 -2 6 -20 14 -38 17 -41 80 -320 101 -444 l14 -90 -4
150 c-4 160 -21 245 -71 351 -21 44 -54 88 -54 71z"/>
<path d="M920 5308 c-28 -46 -59 -131 -76 -208 -20 -90 -31 -326 -16 -316 7 4
12 22 12 41 0 60 78 426 105 498 12 28 -4 19 -25 -15z"/>
<path d="M917 5108 c-4 -13 -14 -85 -24 -161 -17 -136 -17 -139 2 -153 16 -12
21 -12 34 0 11 12 14 46 14 167 -1 142 -12 202 -26 147z"/>
<path d="M2756 5084 c-8 -60 -8 -222 0 -263 7 -34 33 -42 53 -17 10 12 8 47
-8 163 -12 82 -21 152 -21 156 0 4 -4 7 -9 7 -4 0 -11 -21 -15 -46z"/>
<path d="M892 4707 c-11 -12 -31 -44 -42 -70 -24 -53 -39 -157 -23 -157 13 0
90 166 99 213 7 43 -3 47 -34 14z"/>
<path d="M2771 4688 c5 -24 28 -81 52 -128 l42 -85 3 45 c2 24 -2 63 -8 85
-14 49 -60 119 -82 123 -14 3 -15 -3 -7 -40z"/>
<path d="M722 4673 c-53 -76 -94 -186 -176 -480 -25 -90 -56 -190 -69 -223
-19 -46 -22 -63 -13 -74 14 -19 67 -39 76 -29 4 4 13 55 19 113 25 213 90 467
170 668 23 58 21 65 -7 25z"/>
<path d="M2950 4698 c0 -3 16 -48 35 -98 71 -185 136 -462 160 -683 7 -58 7
-59 33 -52 15 3 35 14 45 24 18 17 17 21 -17 120 -20 57 -54 170 -76 252 -47
173 -81 271 -120 349 -28 55 -59 101 -60 88z"/>
<path d="M2895 4645 c2 -11 7 -31 10 -45 3 -14 12 -89 20 -167 8 -78 21 -171
30 -207 26 -114 127 -367 141 -353 8 8 -14 162 -42 285 -26 115 -120 418 -149
477 -8 17 -13 21 -10 10z"/>
<path d="M727 4453 c-69 -210 -113 -396 -122 -515 l-6 -73 20 35 c35 60 100
235 121 322 10 46 24 133 30 193 6 61 15 136 21 168 6 33 8 61 5 64 -2 3 -34
-84 -69 -194z"/>
<path d="M1025 4608 c-20 -12 -40 -17 -61 -13 -30 5 -30 5 -81 -107 -29 -62
-61 -149 -72 -194 -11 -44 -38 -132 -60 -195 -22 -63 -38 -115 -37 -116 5 -5
163 232 199 297 53 95 154 338 145 345 -2 1 -16 -6 -33 -17z"/>
<path d="M2640 4619 c0 -36 101 -267 160 -369 47 -80 195 -293 185 -265 -32
85 -87 255 -105 324 -12 46 -44 133 -72 193 -41 86 -54 106 -64 97 -16 -14
-62 -4 -86 18 -15 13 -18 14 -18 2z"/>
<path d="M1337 4576 c3 -24 0 -104 -6 -176 -7 -73 -10 -134 -8 -137 2 -2 30 4
61 14 51 17 56 20 56 48 0 17 -18 82 -41 145 -22 63 -43 123 -46 133 -11 33
-20 17 -16 -27z"/>
<path d="M2322 4545 c-33 -83 -72 -209 -72 -235 0 -15 106 -53 122 -44 4 3 5
16 2 29 -3 13 -9 93 -12 177 l-7 153 -33 -80z"/>
<path d="M1385 4241 c-30 -13 -53 -42 -70 -91 -16 -44 -68 -331 -61 -337 1 -2
15 28 30 67 41 103 97 161 212 216 52 25 94 49 94 53 0 18 -44 63 -81 81 -40
21 -89 25 -124 11z"/>
<path d="M2195 4236 c-39 -17 -85 -64 -85 -87 0 -12 15 -22 49 -34 67 -22 162
-85 195 -128 15 -20 41 -66 57 -104 l30 -68 -7 60 c-11 109 -43 257 -65 301
-33 69 -101 92 -174 60z"/>
<path d="M1538 4076 c-111 -46 -187 -119 -239 -229 -59 -127 -63 -271 -14
-467 l30 -115 60 60 c43 42 90 76 163 113 186 97 193 111 157 301 -12 69 -28
169 -35 221 -12 94 -29 140 -53 140 -6 0 -38 -11 -69 -24z"/>
<path d="M2061 4082 c-6 -12 -16 -56 -21 -99 -6 -43 -22 -142 -36 -221 -15
-84 -23 -157 -20 -177 9 -45 60 -88 183 -153 90 -48 203 -139 203 -164 0 -4 5
-8 10 -8 6 0 10 11 10 24 0 13 12 68 27 123 35 131 37 285 4 382 -43 126 -124
220 -235 274 -80 39 -112 44 -125 19z"/>
<path d="M1695 3934 c11 -90 42 -200 77 -276 17 -37 34 -68 37 -68 3 0 8 64 9
143 4 162 2 169 -85 228 l-46 32 8 -59z"/>
<path d="M1985 3980 c-4 -6 -24 -22 -46 -35 -65 -41 -72 -67 -64 -222 9 -155
14 -158 65 -31 27 70 50 162 64 261 4 35 -5 49 -19 27z"/>
<path d="M346 3763 c-54 -51 -76 -97 -56 -116 9 -9 17 -6 33 14 12 15 39 47
61 73 23 27 36 52 32 61 -8 23 -17 19 -70 -32z"/>
<path d="M3276 3795 c-5 -15 107 -155 125 -155 5 0 9 15 9 34 0 27 -10 42 -54
85 -58 54 -70 60 -80 36z"/>
<path d="M148 3684 c-34 -26 -48 -43 -48 -60 0 -47 47 -38 118 23 31 27 32 29
17 51 -21 29 -31 28 -87 -14z"/>
<path d="M386 3674 c-39 -50 -45 -74 -21 -74 14 0 70 108 61 117 -2 3 -20 -17
-40 -43z"/>
<path d="M3136 3675 c9 -83 13 -97 32 -93 21 5 18 24 -13 92 l-24 51 5 -50z"/>
<path d="M3276 3698 c25 -79 47 -109 66 -90 8 8 0 26 -28 61 -42 57 -49 61
-38 29z"/>
<path d="M3460 3701 c-16 -31 -13 -35 45 -75 55 -38 80 -41 91 -11 8 19 -9 39
-60 77 -46 33 -62 35 -76 9z"/>
<path d="M446 3653 c-17 -36 -24 -59 -17 -66 5 -5 14 -6 19 -3 11 6 37 114 30
122 -2 2 -16 -22 -32 -53z"/>
<path d="M532 3656 c-14 -37 -19 -63 -13 -69 16 -16 30 2 36 47 12 76 1 86
-23 22z"/>
<path d="M3216 3683 c18 -83 26 -103 39 -103 27 0 26 21 -5 75 -35 61 -43 68
-34 28z"/>
<path d="M185 3455 c-25 -47 -45 -93 -43 -103 7 -39 35 -13 82 77 38 74 45 95
35 102 -8 5 -17 9 -21 9 -3 0 -27 -38 -53 -85z"/>
<path d="M3440 3530 c-13 -8 -8 -24 32 -105 46 -92 71 -115 84 -80 5 13 -84
195 -96 195 -3 0 -12 -5 -20 -10z"/>
<path d="M286 3395 c-28 -77 -36 -109 -28 -117 22 -22 39 2 76 100 38 101 39
122 8 122 -12 0 -28 -29 -56 -105z"/>
<path d="M527 3492 c-3 -4 -12 -42 -22 -86 -12 -56 -14 -81 -6 -89 7 -7 14 -7
20 -1 9 9 41 133 41 157 0 16 -27 31 -33 19z"/>
<path d="M1703 3484 l-31 -16 -4 -191 c-3 -142 1 -234 14 -352 10 -87 20 -161
23 -163 6 -6 23 66 35 148 16 112 29 573 16 582 -15 10 -16 10 -53 -8z"/>
<path d="M1937 3493 c-16 -16 2 -470 24 -615 22 -141 30 -138 50 17 12 98 17
203 17 353 -1 206 -2 214 -22 227 -29 18 -61 27 -69 18z"/>
<path d="M3143 3492 c-10 -6 -8 -25 6 -86 20 -83 36 -111 50 -87 5 8 3 37 -5
70 -7 31 -13 61 -14 67 0 20 -25 44 -37 36z"/>
<path d="M3332 3492 c-9 -6 -7 -22 11 -68 13 -32 32 -80 41 -106 12 -34 23
-48 36 -48 10 0 21 4 25 9 8 15 -71 216 -86 218 -8 2 -20 -1 -27 -5z"/>
<path d="M396 3390 c-27 -101 -27 -120 -1 -120 9 0 23 30 39 83 35 112 36 131
10 135 -18 3 -24 -9 -48 -98z"/>
<path d="M3234 3477 c-6 -17 41 -186 56 -201 7 -7 14 -6 22 2 19 19 -30 205
-55 210 -9 2 -20 -3 -23 -11z"/>
<path d="M1224 3395 c-11 -50 -8 -323 4 -390 6 -29 10 -39 11 -24 0 15 12 71
26 124 28 106 26 141 -14 270 l-18 60 -9 -40z"/>
<path d="M2457 3420 c-16 -36 -47 -176 -47 -209 0 -20 9 -68 20 -106 11 -38
20 -85 20 -104 0 -26 3 -32 11 -24 15 15 24 351 11 413 -6 28 -11 39 -15 30z"/>
<path d="M1545 3386 c-45 -25 -61 -40 -67 -62 -14 -59 -38 -304 -44 -459 -10
-247 11 -349 132 -664 35 -90 64 -170 64 -178 0 -21 16 -15 30 12 16 30 9 61
-44 210 -66 186 -70 306 -21 680 25 189 35 478 17 489 -5 3 -35 -10 -67 -28z"/>
<path d="M2076 3328 c-8 -100 2 -235 34 -473 12 -92 19 -206 19 -295 0 -158
-12 -219 -79 -407 -32 -89 -33 -92 -16 -118 10 -15 20 -24 23 -21 3 2 18 40
33 83 16 43 46 125 68 183 95 247 97 255 97 535 0 280 -22 504 -53 539 -14 15
-102 66 -115 66 -3 0 -8 -42 -11 -92z"/>
<path d="M1378 3265 c-51 -49 -57 -59 -72 -127 -60 -262 -63 -391 -17 -587 28
-117 32 -153 34 -292 2 -110 6 -162 15 -171 9 -9 12 0 12 47 0 59 6 88 49 249
20 75 20 82 6 177 -25 169 -16 464 21 668 8 46 14 85 12 87 -2 1 -29 -21 -60
-51z"/>
<path d="M2253 3306 c18 -45 38 -203 49 -377 10 -156 9 -206 -2 -291 -20 -147
-17 -218 13 -322 15 -48 28 -109 28 -135 1 -25 4 -59 8 -76 l7 -30 9 35 c4 19
9 103 10 185 2 130 6 164 31 255 40 147 40 326 0 515 -15 72 -33 139 -41 151
-21 32 -120 112 -112 90z"/>
<path d="M1636 2823 c-4 -48 -14 -150 -22 -225 -11 -106 -12 -152 -4 -205 12
-70 55 -211 70 -227 31 -31 24 431 -9 618 -12 66 -23 121 -25 123 -2 2 -7 -36
-10 -84z"/>
<path d="M2048 2895 c-43 -123 -74 -708 -38 -730 9 -6 54 116 70 185 13 63 12
138 -5 319 -8 86 -16 176 -17 201 -2 32 -5 39 -10 25z"/>
<path d="M1397 2293 c-3 -5 -8 -44 -12 -88 -4 -44 -20 -154 -36 -245 -36 -199
-47 -364 -30 -450 14 -72 74 -217 101 -244 18 -19 19 -18 52 9 44 36 47 50 32
115 -31 135 -37 224 -38 535 -1 289 -3 324 -19 348 -17 26 -41 35 -50 20z"/>
<path d="M2258 2283 c-9 -10 -19 -29 -24 -43 -4 -14 -9 -176 -9 -360 -1 -276
-5 -350 -19 -420 -10 -47 -20 -98 -23 -113 -4 -23 1 -35 28 -63 18 -19 39 -34
46 -34 32 0 107 177 124 295 13 88 2 224 -36 425 -13 71 -27 160 -30 197 -12
138 -21 157 -57 116z"/>
<path d="M1494 2153 c4 -54 11 -220 16 -369 11 -292 23 -410 47 -462 9 -18 41
-55 72 -83 56 -50 56 -50 73 -29 66 82 37 432 -58 705 -20 55 -47 138 -61 185
-28 93 -46 125 -76 141 -19 11 -19 8 -13 -88z"/>
<path d="M2170 2226 c-55 -59 -196 -557 -215 -758 -9 -91 8 -200 36 -248 l20
-33 65 64 c35 35 68 77 74 94 16 53 29 221 40 535 6 168 13 317 16 332 7 36
-9 42 -36 14z"/>
<path d="M1481 1251 c-42 -34 -42 -42 -2 -221 44 -200 69 -363 86 -573 8 -104
15 -193 15 -198 0 -5 8 -9 19 -9 17 0 18 14 24 208 4 140 13 249 28 337 12 72
22 175 23 231 1 97 0 102 -29 144 -45 66 -90 110 -111 110 -11 0 -34 -13 -53
-29z"/>
<path d="M2096 1228 c-73 -84 -80 -104 -73 -232 3 -61 13 -149 21 -196 18 -99
36 -325 36 -457 0 -82 2 -93 18 -93 16 0 19 22 35 212 17 218 48 423 92 606
14 57 25 114 25 126 0 28 -59 86 -87 86 -13 0 -39 -20 -67 -52z"/>
<path d="M1445 906 c-12 -62 1 -273 25 -381 13 -63 20 -126 18 -171 -2 -50 2
-77 11 -88 8 -9 17 -13 21 -9 3 4 3 96 -1 203 -7 181 -34 400 -58 461 -8 23
-9 22 -16 -15z"/>
<path d="M2237 930 c-28 -69 -55 -303 -60 -517 -4 -157 -4 -162 15 -152 16 9
18 18 13 67 -5 42 0 92 20 187 29 145 41 317 27 385 -5 27 -11 39 -15 30z"/>
<path d="M1675 324 c-21 -33 -33 -104 -16 -104 6 0 11 4 11 8 0 5 15 26 34 48
26 31 32 44 25 57 -14 24 -34 21 -54 -9z"/>
<path d="M1972 338 c-16 -16 -15 -25 6 -46 9 -9 27 -31 39 -47 12 -17 25 -27
28 -23 12 12 -4 74 -26 102 -23 29 -30 31 -47 14z"/>
<path d="M1407 294 c-18 -18 84 -134 118 -134 18 0 20 30 3 51 -15 18 -103 89
-110 89 -3 0 -7 -3 -11 -6z"/>
<path d="M2216 254 c-39 -33 -56 -54 -56 -70 0 -14 6 -24 14 -24 21 0 116 99
116 121 0 28 -12 24 -74 -27z"/>
<path d="M1577 213 c-4 -3 -7 -17 -7 -30 0 -19 5 -23 29 -23 37 0 44 11 25 38
-15 22 -35 28 -47 15z"/>
<path d="M2070 200 c-15 -27 -2 -43 31 -38 18 2 24 9 24 28 0 34 -39 40 -55
10z"/>
</g>
</svg>
