<?xml version="1.0" standalone="no"?>
<!DOCTYPE svg PUBLIC "-//W3C//DTD SVG 20010904//EN"
 "http://www.w3.org/TR/2001/REC-SVG-20010904/DTD/svg10.dtd">
<svg xmlns="http://www.w3.org/2000/svg" width="330.000000pt" height="721.000000pt" viewBox="0 0 330.000000 721.000000" preserveAspectRatio="xMidYMid meet" style="width: 1024px; height: 1028px;"><g transform="translate(60,590) scale(0.065,-0.065)" fill="#000000" stroke="none"><path d="M1311 7199 c-64 -12 -170 -77 -207 -126 -77 -101 -99 -219 -77 -418 8 -77 13 -185 11 -240 -4 -105 -6 -111 -112 -398 -38 -102 -45 -146 -23 -148 6 -1 98 -2 202 -3 272 -3 295 9 295 154 0 38 -4 72 -10 75 -11 7 -60 109 -60 125 0 6 -13 24 -29 41 -52 54 -68 181 -24 187 24 4 38 34 49 102 8 58 15 65 77 86 64 21 139 57 193 95 60 41 82 43 173 19 92 -25 85 -15 115 -170 20 -108 31 -130 60 -130 22 0 25 -5 28 -42 3 -38 4 -35 16 35 23 147 11 276 -37 382 -41 91 -105 149 -204 185 -15 5 -32 22 -38 37 -24 65 -108 121 -221 148 -69 16 -111 17 -177 4z m354 -151 c14 -6 25 -14 25 -17 0 -3 -38 -6 -85 -7 -47 0 -85 1 -85 3 0 1 12 9 28 17 33 18 82 20 117 4z" id="0"></path><path d="M1950 6302 c0 -7 -9 -21 -20 -32 -26 -26 -54 -93 -37 -88 15 5 72 116 63 125 -3 3 -6 1 -6 -5z" id="1"></path><path d="M1743 5938 c-7 -8 -37 -65 -68 -127 -47 -96 -55 -120 -55 -168 0 -73 8 -65 84 79 54 101 57 110 54 169 -2 51 -5 60 -15 47z" id="2"></path><path d="M1460 5891 c0 -44 10 -70 63 -172 34 -67 67 -122 72 -123 6 0 11 20 13 45 3 39 -6 63 -60 169 -35 69 -69 126 -75 128 -9 3 -13 -11 -13 -47z" id="3"></path><path d="M1560 5880 c0 -30 31 -103 48 -114 11 -7 62 95 62 123 0 19 -6 21 -55 21 -55 0 -55 0 -55 -30z" id="4"></path><path d="M1330 5800 c-100 -53 -129 -77 -111 -89 7 -5 34 -11 58 -15 42 -6 49 -3 94 35 54 45 73 73 65 95 -8 21 -24 17 -106 -26z" id="5"></path><path d="M1790 5817 c0 -14 20 -42 54 -76 52 -52 54 -52 98 -46 67 10 78 21 48 46 -27 23 -173 99 -190 99 -5 0 -10 -10 -10 -23z" id="6"></path><path d="M1023 5772 c-12 -4 -42 -21 -67 -39 -60 -43 -92 -107 -106 -217 -15 -111 -2 -131 30 -46 25 65 94 173 149 233 43 46 52 60 40 68 -16 10 -15 10 -46 1z" id="7"></path><path d="M2151 5771 c-11 -7 0 -25 54 -83 48 -52 80 -100 114 -168 25 -52 47 -97 48 -99 1 -1 6 -1 10 2 11 7 0 126 -16 185 -15 54 -77 124 -135 152 -47 22 -55 24 -75 11z" id="8"></path><path d="M1144 5718 c-51 -38 -145 -132 -175 -174 -28 -41 -60 -114 -73 -166 -6 -27 -5 -28 31 -28 63 0 113 19 158 61 53 49 81 112 99 225 18 113 14 123 -40 82z" id="9"></path><path d="M1427 5711 c-25 -43 -22 -58 16 -64 47 -7 59 9 40 56 -18 45 -33 47 -56 8z" id="10"></path><path d="M1745 5710 c-28 -54 -16 -76 35 -65 17 4 30 13 30 21 0 21 -29 74 -40 74 -5 0 -16 -13 -25 -30z" id="11"></path><path d="M2030 5713 c1 -46 27 -176 44 -214 36 -86 127 -149 215 -149 l43 0 -7 38 c-18 94 -115 233 -217 308 -33 24 -64 44 -69 44 -5 0 -9 -12 -9 -27z" id="12"></path><path d="M1345 5587 c-123 -48 -188 -134 -240 -314 -30 -104 -39 -91 107 -163 110 -54 227 -86 280 -76 47 9 89 54 99 108 4 24 3 132 -4 241 l-11 197 -35 10 c-48 13 -159 11 -196 -3z" id="13"></path><path d="M1685 5591 c-39 -8 -42 -27 -50 -271 -6 -187 -6 -196 14 -228 22 -34 73 -62 114 -62 82 0 377 127 377 162 0 10 -13 60 -30 111 -65 203 -171 299 -327 296 -37 -1 -81 -4 -98 -8z" id="14"></path><path d="M920 5269 c-56 -22 -101 -88 -126 -184 -14 -51 -19 -230 -8 -259 13 -34 51 -17 109 46 112 125 145 197 145 324 0 56 -3 73 -16 78 -23 9 -75 6 -104 -5z" id="15"></path><path d="M2192 5268 c-27 -27 -6 -183 35 -263 12 -22 52 -75 89 -117 54 -60 74 -77 94 -75 36 3 45 55 32 183 -8 83 -17 116 -44 171 -28 57 -40 72 -78 91 -48 24 -109 29 -128 10z" id="16"></path><path d="M1130 5112 c0 -5 9 -32 21 -58 11 -27 25 -70 31 -97 5 -27 17 -57 24 -66 8 -9 26 -29 39 -46 20 -24 26 -27 34 -16 14 22 -3 54 -37 71 -29 14 -32 19 -32 67 0 45 -5 60 -36 100 -45 60 -44 59 -44 45z" id="17"></path><path d="M2046 5061 c-20 -27 -36 -55 -36 -64 0 -9 -14 -17 -40 -21 -36 -6 -40 -9 -40 -36 0 -38 21 -39 52 -2 l23 29 11 -36 11 -36 12 45 c6 25 22 73 35 108 13 34 21 62 16 62 -5 0 -24 -22 -44 -49z" id="18"></path><path d="M1222 5054 c4 -21 66 -66 82 -61 6 2 12 13 14 24 2 15 -6 22 -35 32 -21 7 -44 15 -51 18 -9 3 -13 -1 -10 -13z" id="19"></path><path d="M1950 5053 c-25 -9 -47 -17 -48 -19 -9 -7 11 -44 23 -44 16 0 85 58 85 71 0 11 -5 11 -60 -8z" id="20"></path><path d="M1006 4977 c-32 -72 -74 -133 -131 -190 -49 -49 -53 -57 -30 -57 22 0 109 83 145 140 40 63 66 138 52 152 -8 8 -18 -5 -36 -45z" id="21"></path><path d="M2180 4996 c0 -63 147 -266 193 -266 9 0 17 3 17 6 0 3 -26 35 -59 70 -32 35 -75 98 -96 139 -40 78 -55 92 -55 51z" id="22"></path><path d="M1462 4989 c-94 -18 -142 -74 -142 -164 l0 -47 30 25 c35 30 46 34 137 51 l68 12 3 62 c2 49 0 62 -12 62 -8 0 -20 2 -28 4 -7 2 -32 0 -56 -5z" id="23"></path><path d="M1693 4992 c-21 -3 -23 -9 -23 -66 l0 -62 73 -12 c39 -7 92 -24 116 -37 24 -14 46 -23 48 -21 11 11 -10 108 -29 131 -36 46 -124 78 -185 67z" id="24"></path><path d="M1220 4971 c0 -5 14 -23 32 -40 31 -30 33 -31 40 -11 4 11 5 26 2 34 -8 21 -74 36 -74 17z" id="25"></path><path d="M1963 4893 c-15 -10 -23 -26 -23 -44 0 -37 12 -37 44 2 43 50 29 77 -21 42z" id="26"></path><path d="M1206 4818 c8 -41 28 -74 54 -88 18 -10 20 -8 20 22 0 26 -9 40 -40 66 l-40 33 6 -33z" id="27"></path><path d="M1977 4812 c-24 -25 -37 -47 -37 -65 0 -33 14 -34 45 -3 21 21 44 90 33 101 -2 3 -21 -12 -41 -33z" id="28"></path><path d="M1425 4806 c-67 -31 -105 -76 -105 -124 0 -20 4 -42 8 -48 5 -7 44 -9 120 -6 l112 5 0 98 0 99 -42 0 c-24 0 -66 -11 -93 -24z" id="29"></path><path d="M1667 4823 c-9 -8 -9 -86 -1 -146 l6 -45 107 -4 c116 -5 131 0 131 52 0 43 -40 92 -100 122 -52 26 -127 37 -143 21z" id="30"></path><path d="M758 4755 c-77 -52 -158 -192 -232 -400 -26 -71 -64 -170 -86 -220 -21 -49 -46 -108 -55 -129 -15 -39 -15 -39 4 -22 11 10 43 63 73 119 29 56 91 154 138 217 87 118 136 206 170 305 19 54 37 155 29 155 -3 0 -21 -11 -41 -25z" id="31"></path><path d="M2427 4774 c-14 -15 23 -153 65 -244 37 -77 61 -115 148 -231 36 -48 82 -120 104 -161 51 -96 97 -170 103 -164 3 3 -19 58 -47 123 -29 65 -68 161 -85 215 -60 176 -139 332 -204 401 -33 37 -77 68 -84 61z" id="32"></path><path d="M1213 4697 c-11 -17 -16 -421 -6 -492 8 -56 11 -61 45 -80 46 -25 60 -14 61 47 1 99 -25 465 -34 489 -12 32 -54 55 -66 36z" id="33"></path><path d="M1965 4688 c-23 -20 -28 -33 -31 -88 -20 -332 -25 -452 -19 -470 8 -27 33 -25 70 4 l30 24 0 266 c0 182 -4 269 -11 276 -8 8 -19 5 -39 -12z" id="34"></path><path d="M815 4599 c-61 -67 -102 -125 -107 -155 -4 -26 24 -20 82 16 25 15 55 31 68 35 13 4 27 18 33 32 16 44 9 133 -11 133 -4 0 -33 -28 -65 -61z" id="35"></path><path d="M2330 4587 l0 -73 81 -42 c74 -39 109 -50 109 -37 0 11 -33 70 -52 95 -33 43 -120 130 -129 130 -5 0 -9 -33 -9 -73z" id="36"></path><path d="M1368 4589 c-53 -24 -61 -42 -52 -113 l7 -46 63 0 c35 0 84 -7 110 -16 60 -20 64 -14 64 93 l0 81 -31 11 c-48 17 -109 13 -161 -10z" id="37"></path><path d="M1690 4597 c-24 -13 -25 -16 -22 -102 2 -49 5 -91 7 -93 2 -2 25 3 51 12 26 9 76 16 111 16 71 0 77 7 71 91 -3 41 -6 46 -48 67 -50 25 -130 29 -170 9z" id="38"></path><path d="M780 4375 c-100 -149 -195 -269 -269 -343 -40 -40 -76 -71 -79 -68 -2 3 23 34 57 70 104 107 291 350 291 378 0 5 -18 -1 -40 -13 -59 -33 -207 -222 -292 -374 -27 -48 -32 -63 -22 -72 9 -9 32 7 100 70 148 139 215 218 280 334 56 99 38 112 -26 18z" id="39"></path><path d="M2385 4428 c29 -94 147 -251 288 -383 132 -124 149 -126 32 -3 -86 90 -285 350 -302 394 -9 23 -25 16 -18 -8z" id="40"></path><path d="M2467 4368 c62 -95 245 -320 313 -383 l32 -30 -22 44 c-33 67 -100 167 -178 268 -74 94 -126 143 -156 143 -13 0 -12 -7 11 -42z" id="41"></path><path d="M1325 4324 c8 -89 56 -290 90 -379 49 -131 89 -169 140 -131 17 12 18 27 12 247 -6 204 -9 237 -25 258 -38 51 -69 65 -148 69 l-76 4 7 -68z" id="42"></path><path d="M1724 4358 c-60 -41 -60 -40 -68 -312 -6 -187 -5 -211 10 -227 26 -29 60 -24 88 14 54 70 130 326 142 480 l7 77 -65 0 c-58 0 -72 -4 -114 -32z" id="43"></path><path d="M1125 4073 c16 -140 65 -308 178 -613 101 -274 140 -388 179 -525 17 -60 33 -112 36 -115 7 -7 -7 169 -24 300 -22 165 -87 353 -227 655 -40 88 -88 204 -106 258 -18 53 -35 97 -38 97 -2 0 -1 -26 2 -57z" id="44"></path><path d="M2086 4100 c-14 -58 -90 -247 -149 -370 -63 -133 -113 -259 -161 -403 -32 -96 -53 -227 -70 -440 -5 -67 7 -67 23 0 27 107 88 291 172 515 137 366 205 606 197 695 l-3 38 -9 -35z" id="45"></path><path d="M1989 4038 c-29 -40 -95 -116 -146 -169 l-94 -96 20 -52 c23 -63 69 -141 81 -141 5 0 12 17 15 38 10 62 54 191 111 319 60 136 75 173 70 173 -2 0 -27 -33 -57 -72z" id="46"></path><path d="M1180 4097 c0 -4 26 -67 58 -140 60 -133 105 -259 119 -331 4 -22 13 -41 19 -43 14 -5 80 120 89 168 6 34 4 38 -50 84 -31 27 -93 94 -137 149 -93 116 -98 123 -98 113z" id="47"></path><path d="M1067 4064 c-3 -6 -13 -51 -22 -100 -20 -114 -20 -342 0 -482 30 -206 110 -486 201 -704 22 -53 24 -71 24 -227 0 -159 1 -169 20 -174 29 -8 41 14 52 100 15 108 15 576 0 697 -10 77 -35 169 -112 405 -54 168 -112 349 -128 401 -15 52 -31 90 -35 84z" id="48"></path><path d="M2140 4044 c-6 -14 -10 -29 -10 -33 0 -15 -138 -447 -205 -642 -46 -134 -60 -299 -52 -642 7 -320 17 -374 66 -348 20 11 21 19 21 180 l0 168 49 129 c86 229 134 399 168 599 24 142 24 431 -1 538 -10 42 -20 77 -22 77 -3 0 -9 -12 -14 -26z" id="49"></path><path d="M299 3897 c-34 -32 -120 -169 -117 -187 2 -9 31 -42 66 -74 59 -54 65 -57 85 -43 35 22 66 128 67 223 l0 82 -39 10 c-35 8 -43 7 -62 -11z" id="50"></path><path d="M2860 3906 c-33 -12 -35 -15 -38 -67 -8 -131 49 -275 98 -249 37 20 120 109 120 129 0 29 -120 203 -139 200 -3 0 -22 -6 -41 -13z" id="51"></path><path d="M164 3836 c-39 -29 -85 -61 -102 -70 -34 -18 -40 -31 -18 -39 16 -7 160 80 195 116 20 23 22 47 3 47 -4 0 -39 -24 -78 -54z" id="52"></path><path d="M2972 3868 c2 -16 31 -42 97 -86 52 -34 100 -61 105 -59 21 7 10 28 -26 50 -20 12 -64 43 -97 70 -68 53 -84 57 -79 25z" id="53"></path><path d="M1487 3633 c-55 -118 -57 -127 -45 -165 6 -18 14 -60 17 -92 12 -118 43 -64 60 104 21 203 22 230 13 230 -5 0 -25 -35 -45 -77z" id="54"></path><path d="M1690 3653 c0 -70 27 -284 40 -318 16 -41 30 -28 30 25 0 28 7 67 15 87 8 19 15 42 15 51 0 19 -79 200 -91 208 -5 3 -9 -21 -9 -53z" id="55"></path><path d="M112 3593 c-45 -97 -56 -148 -32 -148 16 0 90 159 93 202 4 53 -21 31 -61 -54z" id="56"></path><path d="M3052 3667 c-8 -9 0 -38 29 -106 21 -52 44 -100 50 -107 20 -25 32 -15 26 21 -6 38 -78 204 -88 205 -4 0 -11 -6 -17 -13z" id="57"></path><path d="M162 3552 c-27 -62 -62 -164 -62 -184 0 -4 6 -8 14 -8 16 0 96 171 103 223 9 62 -20 46 -55 -31z" id="58"></path><path d="M3004 3607 c-10 -26 83 -247 104 -247 18 0 15 28 -12 106 -42 124 -77 178 -92 141z" id="59"></path><path d="M200 3481 c-38 -90 -44 -121 -21 -121 11 0 91 176 91 200 0 48 -31 14 -70 -79z" id="60"></path><path d="M2955 3571 c-6 -11 22 -86 61 -162 19 -38 28 -49 37 -40 12 12 3 42 -44 149 -27 59 -41 73 -54 53z" id="61"></path><path d="M297 3520 c-15 -30 -27 -68 -27 -84 l1 -31 14 25 c21 37 47 118 43 132 -3 7 -16 -12 -31 -42z" id="62"></path><path d="M994 3505 c-14 -93 -9 -298 10 -425 21 -140 71 -336 126 -495 82 -237 90 -239 90 -17 0 174 6 145 -104 522 -31 107 -70 258 -85 335 l-28 140 -9 -60z" id="63"></path><path d="M2210 3533 c0 -72 -87 -420 -166 -666 -31 -98 -35 -120 -40 -270 -5 -132 -3 -165 8 -181 13 -17 17 -12 46 65 72 195 126 388 158 564 23 124 27 486 7 507 -10 9 -13 6 -13 -19z" id="64"></path><path d="M2892 3548 c3 -7 13 -36 22 -65 9 -28 24 -57 33 -65 14 -11 15 -9 8 22 -11 52 -42 120 -56 120 -6 0 -9 -6 -7 -12z" id="65"></path><path d="M1400 3035 c0 -33 5 -107 11 -165 9 -87 8 -128 -5 -229 -16 -126 -20 -239 -10 -278 5 -17 14 -23 36 -23 25 0 32 7 51 48 20 43 22 62 21 222 0 157 -3 185 -27 270 -14 52 -37 122 -51 155 l-25 60 -1 -60z" id="66"></path><path d="M1807 3057 c-97 -220 -126 -545 -61 -683 13 -27 22 -34 44 -34 47 0 56 62 36 238 -19 158 -20 241 -5 366 6 50 9 105 7 121 l-4 30 -17 -38z" id="67"></path><path d="M1283 2278 c-13 -6 -23 -17 -23 -25 0 -27 51 -168 66 -183 14 -13 17 -13 30 5 32 43 56 191 33 206 -19 12 -79 10 -106 -3z" id="68"></path><path d="M1834 2280 c-24 -24 23 -226 50 -217 19 6 56 82 68 142 10 53 10 59 -7 71 -22 16 -96 19 -111 4z" id="69"></path><path d="M1441 2239 c0 -14 -17 -89 -36 -168 -19 -78 -35 -166 -34 -194 0 -37 3 -46 9 -32 67 163 80 204 79 255 -1 64 -16 177 -18 139z" id="70"></path><path d="M1771 2147 c-1 -110 1 -123 28 -185 16 -37 33 -79 36 -95 4 -15 12 -30 18 -34 16 -10 1 99 -33 244 -49 202 -48 200 -49 70z" id="71"></path><path d="M1211 2209 c-2 -58 21 -234 31 -247 15 -17 88 -55 95 -48 8 7 -16 74 -55 151 -19 39 -43 93 -53 120 -14 39 -18 44 -18 24z" id="72"></path><path d="M2000 2204 c0 -9 -25 -69 -55 -133 -47 -100 -66 -161 -51 -161 2 0 24 11 48 25 38 21 46 31 52 63 10 61 20 222 13 222 -4 0 -7 -7 -7 -16z" id="73"></path><path d="M1416 1820 c-14 -47 -30 -105 -35 -130 -13 -57 -14 -548 -1 -660 13 -117 32 -220 40 -220 17 0 110 471 110 555 0 124 -54 478 -80 525 -6 9 -16 -13 -34 -70z" id="74"></path><path d="M1752 1803 c-27 -124 -62 -365 -62 -430 0 -70 88 -513 110 -552 5 -10 12 4 19 40 29 143 34 217 32 507 -1 303 -1 303 -31 409 -16 59 -33 110 -38 115 -5 5 -18 -33 -30 -89z" id="75"></path><path d="M1196 1844 c-10 -76 -7 -146 10 -209 41 -160 87 -382 123 -600 47 -285 60 -345 72 -345 14 0 11 47 -10 135 -23 100 -28 134 -41 315 -14 184 -43 388 -74 510 -27 109 -65 240 -70 240 -2 0 -6 -21 -10 -46z" id="76"></path><path d="M1982 1778 c-55 -180 -89 -392 -112 -690 -11 -140 -17 -181 -45 -302 -16 -68 -14 -109 5 -90 10 10 36 150 75 394 13 85 45 245 71 355 38 162 48 223 51 318 3 68 1 117 -5 117 -5 0 -23 -46 -40 -102z" id="77"></path><path d="M1150 1609 c-20 -166 -9 -255 63 -469 14 -41 42 -129 62 -195 35 -111 81 -222 90 -213 2 2 -5 37 -15 77 -11 41 -31 158 -45 260 -14 102 -37 238 -51 301 -41 185 -76 324 -84 333 -4 5 -13 -38 -20 -94z" id="78"></path><path d="M2041 1673 c-41 -149 -95 -416 -117 -578 -14 -104 -34 -224 -45 -267 -23 -92 -24 -113 -2 -73 29 54 63 148 98 270 19 66 49 161 67 210 32 89 33 92 32 255 0 91 -5 179 -11 195 l-10 30 -12 -42z" id="79"></path><path d="M1352 668 c-17 -17 -16 -21 27 -87 21 -34 42 -72 45 -86 12 -48 26 -25 26 43 0 73 -9 92 -61 125 -19 13 -28 14 -37 5z" id="80"></path><path d="M1813 644 c-41 -34 -43 -38 -42 -87 0 -29 4 -60 8 -71 6 -15 10 -11 26 24 10 23 34 63 51 88 26 35 31 49 23 64 -13 24 -17 23 -66 -18z" id="81"></path><path d="M1316 538 c-3 -13 -6 -36 -6 -52 0 -16 -7 -55 -16 -86 l-16 -56 91 -92 c49 -51 92 -92 95 -92 3 0 6 33 6 73 0 113 -40 229 -103 295 -37 38 -43 39 -51 10z" id="82"></path><path d="M1873 545 c-71 -49 -138 -255 -119 -361 l8 -38 41 50 c23 27 64 70 91 95 45 42 48 48 42 80 -4 19 -12 69 -18 112 -7 42 -14 77 -18 77 -3 0 -15 -7 -27 -15z" id="83"></path><path d="M1220 163 c-36 -47 -68 -92 -73 -99 -9 -15 36 -29 129 -39 75 -8 86 1 104 84 12 60 12 62 -11 87 -20 22 -69 54 -81 54 -2 0 -33 -39 -68 -87z" id="84"></path><path d="M1887 225 c-20 -14 -40 -37 -43 -51 -8 -31 0 -84 18 -121 13 -27 16 -28 83 -25 67 2 135 17 135 29 0 10 -141 193 -148 193 -4 0 -24 -11 -45 -25z" id="85"></path><path d="M1411 141 c-6 -11 -11 -40 -11 -65 0 -46 0 -46 34 -46 30 0 34 3 38 30 4 29 -18 80 -41 94 -5 4 -15 -2 -20 -13z" id="86"></path><path d="M1776 130 c-17 -21 -26 -43 -26 -66 0 -35 1 -35 38 -32 l37 3 -2 54 c-3 71 -14 80 -47 41z" id="87"></path></g></svg>