<?xml version="1.0" standalone="no"?>
<!DOCTYPE svg PUBLIC "-//W3C//DTD SVG 20010904//EN"
 "http://www.w3.org/TR/2001/REC-SVG-20010904/DTD/svg10.dtd">
<svg xmlns="http://www.w3.org/2000/svg" width="330.000000pt" height="721.000000pt" viewBox="0 0 330.000000 721.000000" preserveAspectRatio="xMidYMid meet" style="width: 1024px; height: 1028px; transform: scale(0.65);"><g transform="translate(-5,720) scale(0.1,-0.1)" fill="#000000" stroke="none"><path d="M1375 7196 c-116 -33 -207 -112 -244 -211 -39 -105 -46 -172 -30 -317 8 -73 14 -178 14 -233 -1 -112 -9 -145 -90 -355 -29 -74 -55 -150 -59 -167 -8 -47 16 -57 116 -48 76 6 372 -5 336 -13 -35 -7 -17 -20 39 -27 32 -4 83 -15 114 -25 l56 -17 7 151 c4 83 8 151 9 152 1 1 22 4 47 5 l45 4 6 -115 c4 -63 7 -134 8 -156 l1 -42 58 18 c31 10 83 21 115 25 61 8 74 19 30 28 -80 16 -137 94 -148 202 l-7 60 89 34 c48 19 94 38 100 44 16 12 61 152 74 227 13 76 12 245 -2 311 -26 125 -101 222 -202 263 -48 19 -61 30 -80 67 -29 54 -82 92 -167 119 -86 28 -173 33 -235 16z m420 -325 c-38 -74 -165 -83 -210 -14 -18 27 -2 32 26 7 46 -42 150 -23 180 33 7 14 15 20 17 15 2 -6 -4 -24 -13 -41z m-265 -748 c25 -9 46 -17 47 -18 1 0 -3 -32 -8 -70 -13 -84 -29 -116 -69 -145 l-30 -21 0 135 c0 75 3 136 7 136 4 0 28 -8 53 -17z" id="87"></path><path d="M1167 5793 c-3 -5 11 -15 31 -22 80 -28 132 -100 198 -274 48 -125 88 -196 139 -248 52 -53 124 -97 126 -77 1 7 1 126 0 263 -2 220 -5 252 -19 263 -32 26 -108 60 -168 77 -69 19 -298 33 -307 18z" id="88"></path><path d="M1927 5779 c-84 -20 -177 -60 -197 -84 -13 -16 -28 -489 -17 -519 15 -40 143 66 199 164 14 25 49 105 78 177 28 73 67 152 86 177 31 41 101 86 135 86 12 0 12 2 -1 10 -26 17 -199 10 -283 -11z" id="89"></path><path d="M1029 5727 c-57 -43 -87 -105 -98 -198 -8 -76 -4 -179 8 -179 3 1 18 20 33 43 39 61 121 149 207 225 42 36 76 70 76 75 0 5 -24 22 -54 38 -73 39 -117 38 -172 -4z" id="90"></path><path d="M2203 5744 c-17 -9 -39 -24 -48 -34 -17 -18 -13 -23 70 -112 48 -51 115 -130 148 -175 l62 -82 7 67 c14 135 -7 240 -60 295 -54 57 -117 72 -179 41z" id="91"></path><path d="M1242 5600 c-45 -32 -101 -111 -120 -169 -7 -19 -11 -35 -10 -36 6 -4 175 -35 227 -41 l54 -7 -8 49 c-9 62 -34 126 -71 187 l-30 48 -42 -31z" id="92"></path><path d="M2046 5551 c-39 -75 -70 -187 -54 -197 11 -7 66 0 186 23 94 18 96 21 56 101 -30 60 -107 142 -134 142 -12 0 -29 -23 -54 -69z" id="93"></path><path d="M1042 5397 c-11 -12 -31 -45 -44 -72 -20 -44 -23 -66 -23 -180 0 -138 15 -395 23 -395 18 0 74 106 96 182 20 70 21 224 1 333 -8 44 -15 97 -15 118 0 43 -8 46 -38 14z" id="94"></path><path d="M2291 5323 c-7 -54 -17 -129 -22 -168 -15 -111 3 -213 54 -314 23 -47 47 -86 52 -88 6 -2 11 22 12 55 1 31 7 117 14 191 13 146 8 244 -16 311 -16 44 -60 110 -73 110 -5 0 -14 -44 -21 -97z" id="95"></path><path d="M1355 5289 c-16 -6 -56 -8 -87 -5 -64 6 -67 2 -47 -51 42 -112 115 -450 146 -686 l8 -58 71 60 c83 70 164 168 196 237 18 40 22 67 23 149 l0 100 -135 133 c-74 72 -137 132 -140 131 -3 0 -18 -5 -35 -10z" id="96"></path><path d="M1845 5167 l-130 -132 0 -100 c0 -94 2 -105 34 -170 27 -55 57 -92 138 -172 57 -57 107 -103 111 -103 5 0 14 48 21 108 16 146 62 368 111 540 22 78 40 144 40 146 0 2 -33 3 -72 3 -40 -1 -84 1 -98 5 -22 7 -39 -7 -155 -125z" id="97"></path><path d="M926 5265 c-24 -36 -53 -122 -65 -189 -11 -62 -15 -274 -5 -264 3 4 18 82 34 175 16 92 36 198 43 236 8 37 13 67 12 67 -2 0 -10 -11 -19 -25z" id="98"></path><path d="M2434 5273 c9 -28 76 -404 76 -424 0 -10 5 -21 12 -25 8 -5 10 25 5 122 -7 141 -23 217 -62 294 -25 49 -41 67 -31 33z" id="99"></path><path d="M922 5037 c-23 -122 -11 -282 17 -238 16 26 23 102 16 190 -10 113 -19 127 -33 48z" id="100"></path><path d="M2425 5004 c-12 -141 7 -247 36 -204 10 15 5 208 -7 263 -11 50 -22 28 -29 -59z" id="101"></path><path d="M861 4727 c-23 -38 -45 -123 -36 -145 7 -19 71 41 115 106 36 54 30 72 -20 72 -33 0 -41 -5 -59 -33z" id="102"></path><path d="M2414 4745 c-8 -20 25 -71 85 -130 l51 -49 0 42 c0 46 -21 105 -47 134 -20 22 -81 24 -89 3z" id="103"></path><path d="M1553 4563 c-45 -49 -100 -102 -123 -118 -22 -15 -40 -32 -40 -37 0 -17 58 -94 146 -193 81 -91 88 -96 96 -75 5 12 7 133 6 268 l-3 245 -82 -90z" id="104"></path><path d="M1737 4623 c-9 -39 -2 -491 6 -500 4 -4 22 9 39 28 17 19 55 61 85 93 30 33 71 83 91 113 l35 54 -24 16 c-13 8 -70 62 -125 119 -99 102 -102 104 -107 77z" id="105"></path><path d="M716 4543 c-88 -197 -162 -431 -142 -450 26 -26 153 244 175 373 17 102 22 164 14 164 -5 0 -26 -39 -47 -87z" id="106"></path><path d="M2610 4613 c0 -72 34 -223 70 -314 37 -91 116 -226 127 -215 18 18 -55 251 -133 432 -46 104 -64 131 -64 97z" id="107"></path><path d="M2669 4587 c58 -135 181 -540 181 -595 0 -24 18 -33 43 -20 23 12 21 48 -7 121 -14 34 -50 126 -80 205 -31 79 -65 162 -75 185 -10 23 -28 63 -39 88 -11 26 -25 49 -31 53 -6 4 -2 -13 8 -37z" id="108"></path><path d="M672 4539 c-76 -166 -213 -530 -207 -550 8 -24 52 -26 59 -1 2 9 7 33 11 52 17 91 122 422 170 534 9 21 14 41 11 44 -3 3 -23 -33 -44 -79z" id="109"></path><path d="M2400 4592 c0 -15 116 -212 181 -307 74 -107 154 -203 162 -195 3 3 -18 62 -47 130 -78 183 -104 240 -138 293 -25 40 -35 47 -62 47 -17 0 -46 9 -63 20 -18 11 -33 16 -33 12z" id="110"></path><path d="M940 4575 c-14 -8 -39 -14 -57 -15 -36 0 -52 -19 -101 -116 -45 -89 -154 -346 -149 -351 10 -9 119 123 188 228 79 120 163 269 151 269 -4 -1 -18 -7 -32 -15z" id="111"></path><path d="M1300 4444 c-6 -14 -13 -70 -17 -125 l-6 -99 47 26 48 27 -7 56 c-6 53 -37 141 -50 141 -3 0 -10 -12 -15 -26z" id="112"></path><path d="M2040 4427 c-12 -27 -24 -72 -27 -101 l-6 -53 44 -27 44 -26 3 32 c4 40 -15 184 -27 206 -8 14 -13 9 -31 -31z" id="113"></path><path d="M1202 4146 c-66 -72 -107 -169 -126 -304 l-6 -43 69 69 c78 79 168 129 280 158 39 10 71 21 71 25 0 19 -121 118 -156 128 -69 19 -88 15 -132 -33z" id="114"></path><path d="M2031 4177 c-31 -10 -141 -110 -141 -128 0 -4 15 -10 33 -14 129 -26 246 -90 332 -182 l52 -56 -8 61 c-17 120 -59 219 -127 295 -37 40 -71 46 -141 24z" id="115"></path><path d="M1535 4014 c-281 -59 -464 -209 -482 -396 -3 -36 0 -89 7 -122 12 -61 74 -191 114 -239 l23 -29 20 35 c30 49 77 82 171 116 138 51 185 83 234 160 28 45 28 45 28 217 0 94 -3 192 -6 218 l-7 46 -41 -1 c-22 -1 -50 -3 -61 -5z" id="116"></path><path d="M1730 3795 l0 -224 43 -53 c52 -64 120 -106 230 -145 62 -21 92 -38 125 -70 23 -23 42 -50 42 -59 0 -30 22 -8 65 61 88 147 111 258 76 372 -40 134 -147 229 -336 301 -51 20 -158 42 -202 42 l-43 0 0 -225z" id="117"></path><path d="M330 3869 c-30 -38 -60 -84 -67 -101 -13 -31 -13 -32 52 -95 36 -34 71 -63 78 -63 35 1 77 110 84 221 l6 86 -33 12 c-18 6 -40 11 -49 11 -9 0 -41 -32 -71 -71z" id="118"></path><path d="M2930 3931 c-25 -7 -25 -9 -24 -104 0 -86 3 -102 30 -154 16 -32 37 -59 46 -61 20 -4 138 111 138 135 0 24 -33 76 -88 141 -44 52 -55 56 -102 43z" id="119"></path><path d="M221 3850 c-56 -38 -102 -72 -103 -77 -6 -33 105 16 167 74 92 85 61 87 -64 3z" id="120"></path><path d="M3040 3901 c0 -16 88 -88 143 -116 36 -19 60 -26 73 -21 18 7 17 8 -6 26 -14 11 -29 20 -34 20 -4 0 -39 23 -77 50 -65 47 -99 61 -99 41z" id="121"></path><path d="M216 3678 c-47 -72 -94 -218 -70 -218 23 0 122 210 109 230 -10 16 -24 12 -39 -12z" id="122"></path><path d="M3124 3687 c-11 -30 89 -238 107 -220 15 15 -2 80 -40 155 -36 72 -56 92 -67 65z" id="123"></path><path d="M261 3621 c-33 -64 -81 -190 -81 -212 0 -14 5 -19 18 -17 18 3 100 193 101 235 1 38 -17 35 -38 -6z" id="124"></path><path d="M3083 3649 c-13 -13 -14 -9 40 -151 31 -83 45 -108 59 -108 10 0 18 6 18 14 0 30 -91 256 -103 256 -2 0 -8 -5 -14 -11z" id="125"></path><path d="M316 3602 c-3 -6 -22 -47 -41 -92 -36 -85 -44 -124 -22 -118 17 6 87 149 90 183 2 28 -16 45 -27 27z" id="126"></path><path d="M3030 3596 c0 -27 53 -155 76 -184 19 -22 24 -24 29 -11 9 23 -68 203 -88 207 -10 2 -17 -3 -17 -12z" id="127"></path><path d="M383 3564 c-19 -27 -43 -86 -43 -105 0 -25 19 -3 44 50 32 66 32 101 -1 55z" id="128"></path><path d="M2960 3585 c0 -17 62 -135 71 -135 13 0 4 30 -24 90 -19 38 -47 65 -47 45z" id="129"></path><path d="M1776 3433 c-21 -74 -30 -158 -29 -283 0 -122 5 -168 31 -296 17 -83 34 -182 38 -220 l8 -69 13 105 c7 58 29 188 49 290 20 102 39 228 41 280 6 107 3 112 -79 168 -65 43 -66 44 -72 25z" id="130"></path><path d="M1523 3404 c-29 -19 -59 -47 -66 -62 -19 -37 -7 -174 32 -362 17 -80 37 -201 46 -270 9 -69 18 -126 19 -128 2 -1 6 26 9 61 3 34 20 131 36 216 26 126 31 177 31 290 0 169 -18 292 -43 290 -7 0 -36 -16 -64 -35z" id="131"></path><path d="M1050 3365 c0 -37 31 -248 49 -335 19 -89 19 -89 44 -20 3 8 3 -17 0 -56 -8 -97 9 -196 67 -414 28 -102 56 -222 62 -268 8 -54 15 -77 19 -65 16 39 8 206 -18 382 -25 174 -26 191 -15 310 12 123 33 216 66 295 21 50 20 56 -4 56 -29 0 -101 -76 -133 -139 l-27 -54 2 64 c2 56 -3 74 -35 139 -20 41 -46 86 -57 100 -18 23 -20 24 -20 5z" id="132"></path><path d="M2301 3352 c-11 -16 -37 -63 -56 -103 -32 -66 -36 -80 -31 -129 3 -30 8 -66 12 -80 3 -14 -6 1 -20 33 -31 73 -68 127 -106 155 -41 31 -90 28 -61 -4 17 -18 50 -123 66 -208 21 -111 21 -306 1 -421 -24 -137 -35 -265 -29 -333 6 -65 23 -86 23 -29 0 37 29 164 90 392 36 139 42 175 43 272 2 98 4 108 13 80 8 -22 14 -27 18 -17 18 47 72 407 63 417 -3 2 -14 -9 -26 -25z" id="133"></path><path d="M1377 3254 c-95 -293 -115 -587 -56 -804 20 -73 85 -210 115 -240 13 -13 15 -10 13 30 0 25 5 147 12 271 15 259 4 492 -32 663 -27 132 -33 141 -52 80z" id="134"></path><path d="M1977 3293 c-3 -4 -14 -51 -26 -105 -34 -160 -44 -318 -36 -573 5 -126 9 -272 9 -322 1 -51 4 -93 7 -93 12 0 86 133 109 195 74 200 67 482 -20 790 -33 116 -35 121 -43 108z" id="135"></path><path d="M1485 2684 c-11 -137 -1 -592 12 -605 31 -31 55 171 42 359 -8 117 -35 331 -44 340 -2 2 -6 -40 -10 -94z" id="136"></path><path d="M1878 2760 c-12 -44 -37 -251 -43 -365 -7 -115 5 -252 27 -299 l12 -28 9 24 c12 32 20 472 10 593 -6 66 -11 91 -15 75z" id="137"></path><path d="M1321 2133 c-7 -60 -25 -189 -41 -288 -66 -410 -68 -470 -19 -568 26 -52 102 -166 110 -167 27 -1 35 196 19 430 -10 138 -11 249 -4 421 9 234 9 234 -13 257 -12 12 -26 22 -31 22 -5 0 -15 -48 -21 -107z" id="138"></path><path d="M2009 2221 c-22 -18 -22 -21 -18 -182 2 -90 2 -240 -1 -334 -8 -314 -6 -559 6 -578 10 -17 16 -11 59 49 27 38 60 95 73 129 23 55 24 69 19 165 -3 58 -24 220 -46 360 -23 140 -44 290 -47 333 -4 42 -10 77 -14 77 -4 0 -18 -8 -31 -19z" id="139"></path><path d="M1417 2174 c-18 -18 -2 -508 24 -777 10 -102 16 -123 39 -155 15 -20 41 -45 59 -55 l31 -18 17 38 c50 117 1 493 -108 825 -42 130 -52 152 -62 142z" id="140"></path><path d="M1928 2119 c-38 -94 -85 -264 -120 -434 -27 -128 -31 -172 -32 -305 -1 -134 2 -160 17 -183 l18 -27 35 24 c74 50 80 70 99 302 21 272 31 645 18 668 -8 15 -14 8 -35 -45z" id="141"></path><path d="M1532 1135 c-18 -40 -32 -174 -32 -320 0 -66 -5 -177 -11 -246 -11 -123 -8 -179 10 -179 12 0 20 65 31 255 5 88 14 221 21 296 8 89 9 151 3 179 l-9 44 -13 -29z" id="142"></path><path d="M1827 1154 c-10 -11 -9 -154 3 -254 6 -47 15 -168 20 -270 10 -196 16 -240 31 -240 17 0 20 50 9 157 -6 59 -15 207 -19 328 -5 152 -12 230 -22 253 -8 19 -17 30 -22 26z" id="143"></path><path d="M1294 1116 c-4 -16 8 -74 35 -163 60 -205 91 -382 91 -519 0 -42 5 -65 15 -74 25 -21 27 7 16 168 -19 252 -55 448 -102 547 -29 61 -46 74 -55 41z" id="144"></path><path d="M2058 1123 c-56 -64 -96 -226 -123 -503 -19 -193 -19 -260 0 -260 17 0 22 27 30 165 7 121 34 260 82 420 31 104 43 179 30 191 -2 2 -11 -4 -19 -13z" id="145"></path><path d="M1987 254 c6 -107 -10 -174 -42 -174 -21 0 -31 26 -60 150 -13 58 -24 103 -24 100 -1 -3 -10 -51 -21 -108 -27 -137 -26 -158 5 -178 31 -20 143 -23 198 -5 28 10 37 18 37 36 0 26 -77 255 -90 269 -6 6 -7 -32 -3 -90z" id="146"></path><path d="M1361 283 c-32 -86 -61 -185 -61 -209 0 -25 14 -32 89 -45 61 -10 134 3 158 27 14 14 14 26 3 100 -6 46 -18 105 -25 131 l-12 48 -12 -60 c-30 -145 -45 -190 -66 -190 -34 0 -46 41 -43 153 2 56 0 102 -3 102 -4 0 -16 -26 -28 -57z" id="147"></path></g></svg>
