<svg width="50" height="50" viewBox="0 0 50 50" fill="none" xmlns="http://www.w3.org/2000/svg">
<path d="M8.33331 18.75C8.33331 12.8574 8.33331 9.91116 10.1639 8.08058C11.9945 6.25 14.9408 6.25 20.8333 6.25H29.1666C35.0592 6.25 38.0055 6.25 39.8361 8.08058C41.6666 9.91116 41.6666 12.8574 41.6666 18.75V32.9742C41.6666 38.5644 41.6666 41.3595 39.9077 42.2144C38.1488 43.0693 35.9509 41.3424 31.5553 37.8887L30.1485 36.7833C27.6769 34.8414 26.4411 33.8704 25 33.8704C23.5589 33.8704 22.3231 34.8414 19.8515 36.7834L18.4447 37.8887C14.049 41.3424 11.8512 43.0693 10.0923 42.2144C8.33331 41.3595 8.33331 38.5644 8.33331 32.9742V18.75Z" stroke="#F7F9FF" stroke-width="2"/>
</svg>
