<svg width="50" height="50" viewBox="0 0 50 50" fill="none" xmlns="http://www.w3.org/2000/svg">
<path d="M33.2606 37.9525L32.6307 38.7293L33.2606 37.9525ZM32.7132 41.6033L32.7999 42.5996L32.7132 41.6033ZM35.678 40.7178L36.6342 41.0107L35.678 40.7178ZM32.7132 8.39668L32.6266 9.39292L32.7132 8.39668ZM35.678 9.28225L36.6342 8.98933L35.678 9.28225ZM28.0833 25C28.0833 20.0845 30.346 15.6982 33.8904 12.8242L32.6307 11.2707C28.6381 14.5081 26.0833 19.4561 26.0833 25H28.0833ZM33.8904 37.1758C30.346 34.3018 28.0833 29.9155 28.0833 25H26.0833C26.0833 30.5439 28.6381 35.4919 32.6307 38.7293L33.8904 37.1758ZM32.6266 40.6071C32.1732 40.6465 31.7141 40.6667 31.25 40.6667V42.6667C31.772 42.6667 32.2889 42.644 32.7999 42.5996L32.6266 40.6071ZM31.25 40.6667C22.5975 40.6667 15.5833 33.6525 15.5833 25H13.5833C13.5833 34.757 21.493 42.6667 31.25 42.6667V40.6667ZM15.5833 25C15.5833 16.3475 22.5975 9.33334 31.25 9.33334V7.33334C21.493 7.33334 13.5833 15.243 13.5833 25H15.5833ZM31.25 9.33334C31.7141 9.33334 32.1732 9.35349 32.6266 9.39292L32.7999 7.40044C32.2889 7.356 31.772 7.33334 31.25 7.33334V9.33334ZM32.6307 38.7293C33.5269 39.4559 34.1165 39.9368 34.4712 40.3111C34.8749 40.7373 34.6422 40.685 34.7219 40.4248L36.6342 41.0107C36.9114 40.1056 36.3416 39.3775 35.9231 38.9357C35.4555 38.442 34.7375 37.8627 33.8904 37.1758L32.6307 38.7293ZM32.7999 42.5996C33.6853 42.5225 34.4733 42.4571 35.0545 42.3127C35.6384 42.1676 36.3759 41.8535 36.6342 41.0107L34.7219 40.4248C34.7825 40.2268 34.9601 40.2753 34.5722 40.3717C34.1815 40.4688 33.5859 40.5236 32.6266 40.6071L32.7999 42.5996ZM33.8904 12.8242C34.7375 12.1373 35.4555 11.558 35.9231 11.0643C36.3416 10.6225 36.9114 9.89436 36.6342 8.98933L34.7219 9.57517C34.6422 9.31502 34.8749 9.26268 34.4712 9.68888C34.1165 10.0632 33.5269 10.5441 32.6307 11.2707L33.8904 12.8242ZM32.6266 9.39292C33.5859 9.47636 34.1815 9.53124 34.5722 9.6283C34.9601 9.72468 34.7825 9.77316 34.7219 9.57517L36.6342 8.98933C36.3759 8.14646 35.6384 7.83239 35.0545 7.68732C34.4733 7.54293 33.6853 7.47746 32.7999 7.40044L32.6266 9.39292Z" fill="white"/>
</svg>
