<svg width="30" height="30" viewBox="0 0 30 30" fill="none" xmlns="http://www.w3.org/2000/svg">
<path d="M2.5 15L1.71913 14.3753L1.21938 15L1.71913 15.6247L2.5 15ZM13.75 16C14.3023 16 14.75 15.5523 14.75 15C14.75 14.4477 14.3023 14 13.75 14V16ZM6.71913 8.1253L1.71913 14.3753L3.28087 15.6247L8.28087 9.3747L6.71913 8.1253ZM1.71913 15.6247L6.71913 21.8747L8.28087 20.6253L3.28087 14.3753L1.71913 15.6247ZM2.5 16H13.75V14H2.5V16Z" fill="#fff"/>
<path d="M12.5 10.1649V8.38851C12.5 6.77017 12.5 5.961 12.974 5.4015C13.4479 4.84201 14.2461 4.70899 15.8424 4.44293L20.5136 3.6644C23.7567 3.12388 25.3782 2.85363 26.4391 3.75232C27.5 4.65102 27.5 6.29493 27.5 9.58276V20.4172C27.5 23.7051 27.5 25.349 26.4391 26.2477C25.3782 27.1464 23.7567 26.8761 20.5136 26.3356L15.8424 25.5571C14.2461 25.291 13.4479 25.158 12.974 24.5985C12.5 24.039 12.5 23.2298 12.5 21.6115V20.0825" stroke="#fff" stroke-width="2"/>
</svg>
