<svg width="50" height="50" viewBox="0 0 50 50" fill="none" xmlns="http://www.w3.org/2000/svg">
<path d="M43.75 25C43.75 21.0823 42.5228 17.263 40.2409 14.0785C37.9589 10.8941 34.7368 8.50436 31.027 7.24506C27.3172 5.98576 23.3062 5.92012 19.5572 7.05737C15.8082 8.19461 12.5096 10.4776 10.1246 13.5857C7.73969 16.6938 6.38822 20.4709 6.26004 24.3865C6.13186 28.3021 7.23339 32.1595 9.40994 35.4169C11.5865 38.6744 14.7287 41.1682 18.3953 42.5482C22.0619 43.9282 26.0687 44.1251 29.8529 43.1111" stroke="white" stroke-width="2" stroke-linecap="round"/>
<circle cx="25" cy="25" r="8.33333" stroke="white" stroke-width="2"/>
<path d="M33.3333 18.75V28.125C33.3333 31.0015 35.6652 33.3333 38.5417 33.3333V33.3333C41.4182 33.3333 43.75 31.0015 43.75 28.125V25" stroke="white" stroke-width="2" stroke-linecap="round"/>
</svg>
